<svg width="612" height="30" viewBox="0 0 612 30" fill="none" xmlns="http://www.w3.org/2000/svg">
<path d="M2.18555 22.6765C33.4702 22.6765 64.36 20.9974 95.5865 19.6286C180.969 15.8859 266.655 13.844 351.889 8.6785C411.273 5.07955 469.825 2.35681 529.413 2.35681C555.034 2.35681 577.294 1.68267 602.058 6.98519C605.133 7.64342 614.138 8.12966 607.876 10.2589C596.997 13.9588 582.371 12.8597 570.768 13.7584C509.952 18.4688 449.462 23.2231 388.526 26.7405C359.472 28.4175 330.225 27.7565 301.1 27.7565C275.819 27.7565 250.545 27.8275 225.31 26.5147C193.523 24.861 161.849 21.8925 129.865 21.6605C118.441 21.5777 107.011 21.6605 95.5865 21.6605" stroke="#31C0A2" stroke-width="3" stroke-linecap="round"/>
</svg>
