<svg width="72" height="72" viewBox="0 0 72 72" fill="none" xmlns="http://www.w3.org/2000/svg">
<g clip-path="url(#clip0_5404_8876)">
<path d="M36.2311 71.9045C55.9672 71.9045 71.9665 55.9052 71.9665 36.1691C71.9665 16.4329 55.9672 0.433594 36.2311 0.433594C16.4949 0.433594 0.495605 16.4329 0.495605 36.1691C0.495605 55.9052 16.4949 71.9045 36.2311 71.9045Z" fill="url(#paint0_radial_5404_8876)"/>
<g filter="url(#filter0_d_5404_8876)">
<g filter="url(#filter1_d_5404_8876)">
<path d="M12.1111 16.0382L12.4231 19.8983L16.2917 20.2916L16.3991 18.9187L13.7199 18.6237L13.493 15.962L12.1111 16.0382ZM14.3119 13.8751L14.6165 17.7424L18.4925 18.1285L18.5999 16.7555L15.9133 16.4678L15.6938 13.7988L14.3119 13.8751Z" fill="white"/>
</g>
<g filter="url(#filter2_d_5404_8876)">
<path d="M21.7952 7.28711L20.0484 8.293L20.0206 9.63986L20.0117 10.8319L18.9672 10.2465L17.7613 9.60999L16.0056 10.6211L19.7172 12.5483L19.491 17.0069L21.2648 15.9855L21.3092 14.605L21.3277 13.1796L22.5698 13.8791L23.786 14.5336L25.5508 13.5174L21.6133 11.4685L21.7952 7.28711Z" fill="white"/>
</g>
<g filter="url(#filter3_d_5404_8876)">
<path d="M26.6653 7.49146C25.8397 7.7408 25.2751 8.0633 24.5974 8.65869L25.3248 9.66551C25.8534 9.22364 26.2819 8.95315 26.819 8.79091C27.5849 8.55961 27.9952 8.69619 28.1603 9.2432L28.1995 9.37253C27.7486 9.38933 27.3457 9.45671 26.9478 9.57689C25.5554 9.99742 24.8952 10.9023 25.2196 11.9765C25.508 12.9315 26.3995 13.3676 27.4638 13.0462C28.1501 12.8389 28.7125 12.3652 29.0041 11.8212L29.2232 12.4388L30.6257 12.0153L29.6614 8.82247C29.2678 7.51947 28.1871 7.03184 26.6653 7.49146ZM27.6217 11.7721C27.1642 11.9102 26.8623 11.7735 26.7572 11.4253C26.6371 11.0275 26.8823 10.7255 27.4691 10.5483C27.7576 10.4612 28.1237 10.4156 28.5347 10.4109C28.6563 10.9929 28.298 11.5678 27.6217 11.7721Z" fill="white"/>
</g>
<g filter="url(#filter4_d_5404_8876)">
<path d="M30.8013 6.48985L30.9433 8.01061L32.671 7.8493L33.0274 11.6667L34.7136 11.5092L34.3573 7.69185L36.0642 7.53247L35.9222 6.01172L30.8013 6.48985Z" fill="white"/>
</g>
<g filter="url(#filter5_d_5404_8876)">
<path d="M38.8938 9.1096L39.2334 6.16791L37.5922 5.97852L36.9775 11.3045L38.3916 11.4677L41.0328 8.79166L40.6934 11.7333L42.3345 11.9228L42.9492 6.59673L41.5351 6.43354L38.8938 9.1096Z" fill="white"/>
</g>
<g filter="url(#filter6_d_5404_8876)">
<path d="M48.5281 13.9516L47.762 10.7417L50.2079 8.85906L48.3748 8.21481L46.6597 9.61648L46.1892 9.45106L46.8162 7.66703L45.2184 7.10547L43.4407 12.1635L45.0385 12.7251L45.7172 10.794L46.1583 10.949L46.6657 13.297L48.5281 13.9516Z" fill="white"/>
</g>
<g filter="url(#filter7_d_5404_8876)">
<path d="M51.1433 15.6764C52.6533 16.6128 54.2745 16.2855 55.1615 14.855C56.0486 13.4245 55.6212 11.8268 54.1112 10.8905C52.5924 9.94859 50.9712 10.2759 50.0842 11.7064C49.1971 13.1369 49.6245 14.7346 51.1433 15.6764ZM51.91 14.4402C51.2476 14.0295 51.0732 13.2856 51.5058 12.588C51.9329 11.8993 52.6823 11.716 53.3446 12.1266C53.998 12.5319 54.167 13.2846 53.7399 13.9734C53.3073 14.671 52.5634 14.8454 51.91 14.4402Z" fill="white"/>
</g>
<g filter="url(#filter8_d_5404_8876)">
<path d="M57.8957 14.0332L57.6097 16.6959L54.9167 16.9165L54.9899 18.2918L58.8743 18.0024L59.2752 14.1439L57.8957 14.0332ZM60.0418 16.2506L59.7487 18.9058L57.063 19.1338L57.136 20.5091L61.0133 20.2123L61.4215 16.3613L60.0418 16.2506Z" fill="white"/>
</g>
</g>
<g filter="url(#filter9_d_5404_8876)">
<path d="M7.72428 27.3549C7.3657 27.2214 7.08594 27.0399 6.885 26.8104C6.68365 26.5819 6.56004 26.3263 6.51416 26.0435C6.46895 25.7623 6.50032 25.4766 6.60828 25.1865C6.71704 24.8943 6.88101 24.6568 7.10018 24.4739C7.31936 24.291 7.57981 24.1789 7.88155 24.1377C8.18328 24.0964 8.5129 24.1424 8.87041 24.2755C9.22897 24.4089 9.50897 24.5899 9.71031 24.8183C9.91164 25.0468 10.0349 25.3017 10.0801 25.583C10.1264 25.8646 10.0952 26.1515 9.9864 26.4438C9.87849 26.7339 9.71493 26.9704 9.49573 27.1532C9.27724 27.3376 9.01706 27.4504 8.71536 27.4916C8.41322 27.5339 8.08287 27.4883 7.72428 27.3549ZM7.98662 26.65C8.21889 26.7365 8.42771 26.7747 8.6131 26.7644C8.79809 26.7553 8.95511 26.7034 9.08408 26.6089C9.21315 26.5143 9.30897 26.383 9.37146 26.2149C9.43404 26.0469 9.44737 25.8849 9.41155 25.729C9.37573 25.5731 9.29111 25.4307 9.15751 25.3018C9.02346 25.1739 8.84035 25.0667 8.60809 24.9803C8.37581 24.8939 8.16718 24.8552 7.9822 24.8643C7.79681 24.8746 7.63961 24.9269 7.51058 25.0215C7.38155 25.116 7.28577 25.2474 7.22322 25.4154C7.16067 25.5835 7.1473 25.7454 7.18312 25.9013C7.21893 26.0572 7.30383 26.1991 7.43782 26.327C7.57141 26.4559 7.75434 26.5636 7.98662 26.65Z" fill="white"/>
</g>
<g filter="url(#filter10_d_5404_8876)">
<path d="M5.79867 27.7051L9.2121 28.5165L8.6737 30.7815L8.07867 30.6401L8.44555 29.0967L7.77886 28.9382L7.64692 29.4933C7.58275 29.7632 7.48352 29.9856 7.34925 30.1603C7.21583 30.3364 7.05699 30.4589 6.87274 30.5277C6.68849 30.5966 6.48858 30.6055 6.27301 30.5542C6.05857 30.5033 5.88179 30.4049 5.7427 30.2591C5.60472 30.1136 5.51299 29.9316 5.46751 29.713C5.42178 29.4955 5.43099 29.2517 5.49518 28.9818L5.79867 27.7051ZM6.20714 28.5646L6.0752 29.1197C6.04456 29.2485 6.04201 29.3629 6.06755 29.4629C6.09419 29.5632 6.141 29.6453 6.20795 29.7094C6.27575 29.7749 6.35632 29.8186 6.44965 29.8408C6.58522 29.873 6.71195 29.8485 6.82985 29.7674C6.94859 29.6877 7.03095 29.5511 7.07691 29.3577L7.20884 28.8028L6.20714 28.5646Z" fill="white"/>
</g>
<g filter="url(#filter11_d_5404_8876)">
<path d="M5.11532 36.0203L3.72485 35.8531L3.78226 35.1824L4.605 35.2528L4.6294 34.9677L5.20122 35.0166L5.11532 36.0203ZM8.42714 31.7387L8.36534 32.4607L5.46356 32.2123L5.37767 33.216L8.27945 33.4643L8.21796 34.183L5.31617 33.9347L5.2313 34.9264L8.13308 35.1747L8.07158 35.8933L4.57579 35.5941L4.93134 31.4395L8.42714 31.7387Z" fill="white"/>
</g>
<g filter="url(#filter12_d_5404_8876)">
<path d="M4.60596 36.8172L8.10893 36.6191L8.24241 38.9795L7.63179 39.0141L7.54019 37.3942L6.70549 37.4415L6.79022 38.9398L6.1796 38.9743L6.09487 37.4759L5.25846 37.5233L5.35045 39.1499L4.73982 39.1845L4.60596 36.8172Z" fill="white"/>
</g>
<g filter="url(#filter13_d_5404_8876)">
<path d="M7.5972 42.829L7.46979 42.0895C7.56313 42.0596 7.64335 42.0174 7.71046 41.963C7.7787 41.9083 7.83365 41.8438 7.87529 41.7694C7.91694 41.695 7.94447 41.6126 7.95787 41.5222C7.97146 41.4329 7.96973 41.3388 7.95266 41.2398C7.92182 41.0607 7.85051 40.9126 7.7387 40.7951C7.62803 40.6774 7.48198 40.5965 7.30054 40.5524C7.12023 40.5081 6.91021 40.5067 6.67046 40.548C6.42398 40.5904 6.22318 40.6627 6.06808 40.7647C5.91318 40.8679 5.8044 40.9934 5.74174 41.1409C5.67909 41.2885 5.66279 41.4495 5.69286 41.6239C5.70973 41.7218 5.73828 41.8102 5.77852 41.889C5.81895 41.969 5.86955 42.0374 5.93032 42.0941C5.99222 42.1506 6.06287 42.1941 6.14228 42.2245C6.22187 42.2559 6.30927 42.2721 6.40447 42.2731L6.52851 43.0132C6.36652 43.0214 6.2052 42.9999 6.04457 42.9488C5.88526 42.8986 5.73658 42.8193 5.59854 42.711C5.46182 42.6036 5.34447 42.4674 5.2465 42.3023C5.14984 42.1382 5.0824 41.9452 5.0442 41.7235C4.99106 41.4151 5.01333 41.1273 5.11101 40.8601C5.20887 40.5941 5.37794 40.3679 5.6182 40.1817C5.85865 39.9966 6.16684 39.8716 6.54277 39.8068C6.91982 39.7419 7.25281 39.7575 7.54174 39.8537C7.83068 39.95 8.06531 40.1078 8.24564 40.327C8.4271 40.5461 8.544 40.8075 8.59637 41.1114C8.63089 41.3118 8.63475 41.5023 8.60795 41.6831C8.58134 41.865 8.52546 42.0317 8.4403 42.1831C8.35625 42.3343 8.24374 42.465 8.10278 42.5751C7.96199 42.6863 7.79347 42.7709 7.5972 42.829Z" fill="white"/>
</g>
<g filter="url(#filter14_d_5404_8876)">
<path d="M8.31115 43.1637L8.89701 42.9883L9.72386 45.7486L9.13799 45.9241L8.82978 44.8951L6.05464 45.7264L5.84424 45.024L8.61938 44.1927L8.31115 43.1637Z" fill="white"/>
</g>
<g filter="url(#filter15_d_5404_8876)">
<path d="M6.66577 47.5833L9.89225 46.2051L10.4442 47.497C10.5455 47.7343 10.5949 47.9473 10.5923 48.136C10.5897 48.3246 10.5429 48.4856 10.4521 48.6188C10.3622 48.7516 10.2364 48.8525 10.0747 48.9216C9.94861 48.9754 9.82701 48.9975 9.70994 48.9879C9.59385 48.9779 9.48656 48.9418 9.3879 48.8796C9.29083 48.818 9.20567 48.7364 9.13243 48.6348L9.10096 48.6482C9.14816 48.7733 9.16265 48.9031 9.14434 49.0377C9.12647 49.1733 9.07412 49.2993 8.98736 49.4158C8.90158 49.5319 8.77938 49.6239 8.62078 49.6917C8.44958 49.7648 8.2786 49.7875 8.10782 49.7598C7.93854 49.7328 7.77982 49.6534 7.63166 49.5218C7.4835 49.3901 7.35782 49.2034 7.25462 48.9619L6.66577 47.5833ZM7.51488 48.0273L7.75245 48.5834C7.83365 48.7735 7.9291 48.8966 8.03882 48.9529C8.14958 49.0086 8.26587 49.0105 8.38771 48.9585C8.47698 48.9204 8.54656 48.8652 8.59643 48.7929C8.6463 48.7207 8.67363 48.6364 8.67839 48.54C8.6836 48.4446 8.66288 48.3423 8.61622 48.2331L8.37192 47.6612L7.51488 48.0273ZM8.83353 47.464L9.04958 47.9697C9.0895 48.0632 9.14123 48.1392 9.2047 48.1978C9.26976 48.2569 9.34167 48.2945 9.42052 48.3105C9.4999 48.3276 9.58203 48.3179 9.6671 48.2815C9.78372 48.2317 9.85998 48.1501 9.89598 48.0366C9.93243 47.9242 9.9183 47.7924 9.85367 47.6411L9.63225 47.1228L8.83353 47.464Z" fill="white"/>
</g>
<g filter="url(#filter16_d_5404_8876)">
<path d="M11.266 52.8074C10.9353 53 10.6176 53.1012 10.3127 53.111C10.0083 53.1217 9.7323 53.0552 9.48457 52.9114C9.23844 52.768 9.03746 52.5625 8.88166 52.2951C8.7247 52.0257 8.64503 51.7482 8.64263 51.4628C8.64024 51.1774 8.71878 50.9049 8.87825 50.6455C9.03772 50.386 9.28226 50.1603 9.61186 49.9682C9.94244 49.7757 10.2599 49.674 10.5643 49.6633C10.8687 49.6524 11.1439 49.7188 11.39 49.8622C11.6372 50.005 11.8392 50.2112 11.9961 50.4806C12.1519 50.748 12.2311 51.0245 12.2335 51.3099C12.2374 51.5958 12.1597 51.8684 12.0002 52.1279C11.8413 52.3883 11.5966 52.6148 11.266 52.8074ZM10.8873 52.1576C11.1015 52.0329 11.2634 51.8955 11.3731 51.7457C11.4833 51.5969 11.5428 51.4426 11.5515 51.2829C11.5602 51.1232 11.5195 50.9658 11.4292 50.8109C11.339 50.656 11.2222 50.5429 11.079 50.4717C10.9357 50.4005 10.7719 50.3757 10.5874 50.3972C10.4036 50.4197 10.2046 50.4934 9.99043 50.6181C9.7763 50.7429 9.61408 50.8797 9.50386 51.0285C9.39417 51.1783 9.33497 51.333 9.32626 51.4928C9.31755 51.6525 9.35835 51.8098 9.44857 51.9648C9.53888 52.1197 9.65559 52.2328 9.79888 52.304C9.94217 52.3752 10.1057 52.3995 10.2895 52.377C10.4739 52.3555 10.6732 52.2824 10.8873 52.1576Z" fill="white"/>
</g>
<g filter="url(#filter17_d_5404_8876)">
<path d="M12.0326 56.7872C11.8677 56.5915 11.7544 56.3891 11.6928 56.1795C11.6328 55.9702 11.625 55.7714 11.6695 55.583C11.7154 55.3948 11.8155 55.2336 11.9696 55.0992L12.4511 55.6702C12.3885 55.729 12.3489 55.7989 12.3323 55.8802C12.3172 55.9616 12.3241 56.0468 12.353 56.136C12.3819 56.2252 12.4313 56.3113 12.5013 56.3942C12.5742 56.4807 12.6539 56.5442 12.7404 56.5848C12.8269 56.6254 12.913 56.6416 12.9988 56.6335C13.0847 56.6254 13.1629 56.5915 13.2336 56.5319C13.3052 56.4715 13.3516 56.3981 13.3728 56.3115C13.3955 56.2251 13.3913 56.1316 13.3601 56.0308C13.3297 55.931 13.2719 55.8305 13.1864 55.7291L12.9755 55.479L13.392 55.1278L13.603 55.378C13.6751 55.4635 13.7536 55.5266 13.8385 55.567C13.9241 55.6083 14.0087 55.6253 14.092 55.6178C14.1761 55.6095 14.2536 55.5756 14.3243 55.516C14.3915 55.4593 14.4368 55.3934 14.4603 55.3185C14.4853 55.2435 14.4879 55.1651 14.4681 55.0833C14.4491 55.0022 14.4075 54.9237 14.3435 54.8477C14.2787 54.7709 14.2055 54.7123 14.1238 54.6722C14.043 54.6313 13.961 54.613 13.878 54.6172C13.795 54.6215 13.7183 54.651 13.648 54.7059L13.1897 54.1623C13.3464 54.0347 13.5199 53.9639 13.7099 53.95C13.8999 53.9363 14.0892 53.9739 14.2777 54.0628C14.468 54.152 14.6403 54.2882 14.795 54.4715C14.9511 54.6567 15.054 54.847 15.1038 55.0425C15.1536 55.238 15.1537 55.4225 15.1041 55.5957C15.0561 55.7691 14.961 55.915 14.8189 56.0334C14.6694 56.161 14.5048 56.2199 14.3248 56.2102C14.1456 56.2015 13.9792 56.1334 13.8255 56.006L13.8045 56.0237C13.9456 56.2424 14.0037 56.4504 13.9788 56.6476C13.9555 56.8451 13.86 57.0136 13.6926 57.1533C13.5405 57.2831 13.3675 57.3534 13.1737 57.3645C12.9806 57.3764 12.7845 57.3334 12.5853 57.2354C12.3862 57.1374 12.2019 56.988 12.0326 56.7872Z" fill="white"/>
</g>
<g filter="url(#filter18_d_5404_8876)">
<path d="M14.0463 58.9202L13.4651 58.378L16.7441 56.6387L17.443 57.2908L15.9342 60.6813L15.3529 60.1391L16.5566 57.5603L16.5366 57.5416L14.0463 58.9202ZM14.9508 57.8779L16.3237 59.1587L15.9287 59.5821L14.5558 58.3013L14.9508 57.8779Z" fill="white"/>
</g>
<g filter="url(#filter19_d_5404_8876)">
<path d="M20.7999 63.441L19.9713 64.5701L19.4152 64.1905L19.8807 63.5085L19.6444 63.3473L19.9679 62.8732L20.7999 63.441ZM18.6973 58.4531L19.2958 58.8616L17.6541 61.2672L18.4862 61.835L20.1278 59.4294L20.7236 59.836L19.0819 62.2416L19.904 62.8026L21.5457 60.397L22.1414 60.8036L20.1637 63.7017L16.7195 61.3511L18.6973 58.4531Z" fill="white"/>
</g>
<g filter="url(#filter20_d_5404_8876)">
<path d="M22.7846 61.1191L23.4514 61.4404L22.4938 63.4283L22.52 63.4409L24.8436 62.111L25.4285 62.3927L23.9059 65.5537L23.2375 65.2318L24.1959 63.2422L24.1727 63.2311L21.8407 64.5589L21.262 64.2801L22.7846 61.1191Z" fill="white"/>
</g>
<g filter="url(#filter21_d_5404_8876)">
<path d="M25.7629 63.1908L25.9585 62.6113L28.6887 63.5327L28.4932 64.1122L27.4754 63.7687L26.5491 66.5136L25.8543 66.2791L26.7806 63.5343L25.7629 63.1908Z" fill="white"/>
</g>
<g filter="url(#filter22_d_5404_8876)">
<path d="M29.3439 65.051L30.1647 65.21C30.4383 65.263 30.6651 65.3529 30.8453 65.4797C31.0268 65.6056 31.1559 65.7591 31.2324 65.9404C31.309 66.1215 31.3256 66.3208 31.2823 66.5382C31.2415 66.7548 31.1512 66.9356 31.0115 67.0807C30.8719 67.2247 30.6938 67.3239 30.4774 67.3785C30.262 67.4334 30.0175 67.4343 29.7439 67.3813L28.4573 67.1319L29.1247 63.6875L29.8513 63.8282L29.2973 66.6875L29.8574 66.7959C29.9885 66.8214 30.1035 66.8192 30.2023 66.7895C30.3014 66.7587 30.3815 66.7085 30.4427 66.639C30.5052 66.5685 30.545 66.486 30.5622 66.3916C30.5898 66.2551 30.5606 66.1295 30.4745 66.0151C30.3899 65.8999 30.2495 65.8232 30.0532 65.7852L29.2325 65.6262L29.3439 65.051ZM32.7441 64.3888L32.0767 67.8333L31.3501 67.6925L32.0175 64.248L32.7441 64.3888Z" fill="white"/>
</g>
<g filter="url(#filter23_d_5404_8876)">
<path d="M37.331 64.5498L37.412 68.0574L36.6927 68.074L36.6117 64.5664L37.331 64.5498ZM34.5741 68.1229L35.631 66.2478L34.5393 64.6142L35.4522 64.5932L36.2733 66.0188L37.7549 65.9845L38.4888 64.523L39.3982 64.502L38.4088 66.1785L39.5307 68.0084L38.6452 68.0289L37.8718 66.6673L36.1813 66.7063L35.4527 68.1027L34.5741 68.1229Z" fill="white"/>
</g>
<g filter="url(#filter24_d_5404_8876)">
<path d="M39.7354 64.4015L40.4642 64.2731L40.8469 66.4463L40.8756 66.4412L41.9861 64.0051L42.6256 63.8926L43.234 67.348L42.5034 67.4766L42.1205 65.3017L42.0952 65.3063L40.9765 67.7455L40.3438 67.8568L39.7354 64.4015Z" fill="white"/>
</g>
<g filter="url(#filter25_d_5404_8876)">
<path d="M44.2309 67.1091L43.2119 63.7518L44.5562 63.3438C44.8032 63.2688 45.0204 63.2429 45.2076 63.266C45.3948 63.2892 45.5497 63.3532 45.6723 63.458C45.7944 63.5617 45.8811 63.6978 45.9322 63.8661C45.972 63.9972 45.9807 64.1205 45.9585 64.2358C45.9358 64.3502 45.8883 64.4529 45.8157 64.5441C45.7439 64.634 45.6535 64.7097 45.5445 64.7715L45.5545 64.8043C45.684 64.7709 45.8147 64.7706 45.9463 64.8035C46.0791 64.8359 46.1988 64.9017 46.3052 65.0007C46.4113 65.0986 46.4894 65.2301 46.5395 65.3951C46.5935 65.5733 46.5975 65.7457 46.5515 65.9125C46.5061 66.0778 46.41 66.2269 46.2629 66.3598C46.1159 66.4928 45.9167 66.5974 45.6653 66.6737L44.2309 67.1091ZM44.7646 66.3134L45.3433 66.1377C45.5412 66.0776 45.674 65.9962 45.7418 65.8932C45.8092 65.7892 45.8237 65.6738 45.7853 65.547C45.7571 65.4542 45.7098 65.379 45.6435 65.3215C45.5771 65.2641 45.4963 65.2278 45.4009 65.2126C45.3067 65.1969 45.2027 65.2064 45.0891 65.2409L44.494 65.4215L44.7646 66.3134ZM44.3482 64.9412L44.8744 64.7815C44.9716 64.7519 45.0529 64.7088 45.118 64.652C45.1839 64.5939 45.2291 64.5264 45.2535 64.4498C45.2791 64.3728 45.2785 64.2901 45.2516 64.2015C45.2148 64.0802 45.142 63.9955 45.0331 63.9474C44.9252 63.899 44.7926 63.8986 44.6353 63.9463L44.0959 64.1101L44.3482 64.9412Z" fill="white"/>
</g>
<g filter="url(#filter26_d_5404_8876)">
<path d="M49.894 63.1328C50.0482 63.483 50.1129 63.8101 50.0883 64.1142C50.0646 64.4179 49.9675 64.6846 49.7966 64.9146C49.6263 65.143 49.3996 65.3196 49.1163 65.4442C48.8309 65.5698 48.5463 65.6177 48.2624 65.5879C47.9785 65.5581 47.7166 65.4494 47.4768 65.2618C47.237 65.074 47.0402 64.8056 46.8866 64.4564C46.7324 64.1063 46.6671 63.7794 46.6907 63.4757C46.7143 63.1721 46.8113 62.9061 46.9815 62.6777C47.1513 62.4483 47.3789 62.2707 47.6643 62.1451C47.9475 62.0204 48.2311 61.973 48.515 62.0028C48.7995 62.031 49.0617 62.139 49.3015 62.3267C49.5424 62.514 49.7399 62.7827 49.894 63.1328ZM49.2057 63.4358C49.1058 63.209 48.9876 63.0326 48.8511 62.9067C48.7157 62.7804 48.5691 62.704 48.4114 62.6773C48.2536 62.6507 48.0927 62.6734 47.9286 62.7457C47.7644 62.8179 47.6389 62.9212 47.5521 63.0555C47.4652 63.1898 47.422 63.3498 47.4227 63.5355C47.4243 63.7206 47.4751 63.9267 47.5749 64.1535C47.6747 64.3804 47.7923 64.557 47.9278 64.6833C48.0643 64.8091 48.2115 64.8853 48.3692 64.912C48.5269 64.9387 48.6878 64.9159 48.852 64.8436C49.0161 64.7715 49.1416 64.6682 49.2284 64.5339C49.3154 64.3996 49.3579 64.2397 49.3563 64.0546C49.3557 63.8689 49.3055 63.6627 49.2057 63.4358Z" fill="white"/>
</g>
<g filter="url(#filter27_d_5404_8876)">
<path d="M49.8645 61.8603L49.5508 61.3352L52.0246 59.8574L52.3382 60.3825L51.416 60.9333L52.9017 63.4204L52.2723 63.7964L50.7866 61.3093L49.8645 61.8603Z" fill="white"/>
</g>
<g filter="url(#filter28_d_5404_8876)">
<path d="M54.5758 62.3731L52.4253 59.6008L53.0114 59.1462L53.8987 60.29L55.0886 59.367L54.2013 58.2232L54.7861 57.7695L56.9366 60.5419L56.3518 60.9955L55.4634 59.8502L54.2736 60.7733L55.1619 61.9184L54.5758 62.3731Z" fill="white"/>
</g>
<g filter="url(#filter29_d_5404_8876)">
<path d="M56.4903 57.9878L57.0742 57.3895C57.2688 57.19 57.4687 57.05 57.6736 56.9691C57.8785 56.8867 58.0777 56.8632 58.2712 56.8988C58.4647 56.9344 58.6403 57.03 58.7981 57.1856C58.9566 57.3388 59.0581 57.5136 59.1024 57.7101C59.146 57.9059 59.1312 58.1092 59.0578 58.32C58.9852 58.53 58.8516 58.7348 58.657 58.9343L57.7416 59.8722L55.2307 57.4216L55.7476 56.8919L57.8319 58.9261L58.2304 58.5179C58.3237 58.4222 58.3851 58.325 58.4145 58.2261C58.4432 58.1264 58.4453 58.0319 58.4208 57.9425C58.3963 57.8516 58.3493 57.773 58.2799 57.7068C58.1809 57.6086 58.06 57.5641 57.9172 57.5731C57.7744 57.5804 57.6331 57.6556 57.4935 57.7988L56.9096 58.397L56.4903 57.9878ZM57.8057 54.7832L60.3167 57.2338L59.7997 57.7634L57.2888 55.3128L57.8057 54.7832Z" fill="white"/>
</g>
<g filter="url(#filter30_d_5404_8876)">
<path d="M58.556 53.8006L59.9381 53.9431L59.9544 53.921L59.416 52.6383L59.9143 51.9648L60.6877 53.869L62.749 54.0325L62.2415 54.7184L60.851 54.5844L60.8346 54.6064L61.3693 55.8971L60.8638 56.5802L60.1068 54.654L58.0557 54.4768L58.556 53.8006Z" fill="white"/>
</g>
<g filter="url(#filter31_d_5404_8876)">
<path d="M61.9497 48.293L62.4934 48.5731L61.7666 49.9833L64.3416 51.3105L64.0018 51.9699L60.8831 50.3624L61.9497 48.293Z" fill="white"/>
</g>
<g filter="url(#filter32_d_5404_8876)">
<path d="M65.6678 48.6181C65.6243 48.7224 65.55 48.7967 65.445 48.8407C65.3394 48.8833 65.2344 48.8829 65.1301 48.8394C65.0268 48.7963 64.9535 48.7225 64.9105 48.618C64.8679 48.5124 64.8684 48.4074 64.9118 48.3031C64.9541 48.2018 65.0278 48.1287 65.1333 48.0835C65.2387 48.0383 65.343 48.0373 65.4464 48.0804C65.5159 48.1094 65.5723 48.1538 65.6153 48.2139C65.6578 48.2724 65.6845 48.3374 65.6956 48.4087C65.7056 48.4798 65.6963 48.5495 65.6678 48.6181Z" fill="white"/>
</g>
<g filter="url(#filter33_d_5404_8876)">
<path d="M67.1895 43.8945L65.4543 44.599L65.389 44.8441L66.8343 45.2288L66.6434 45.9456L63.2529 45.043L63.4438 44.3262L64.798 44.6867L64.8363 44.5426L63.7818 43.0564L64.0193 42.1641L65.2399 43.9055L67.4262 43.0054L67.1895 43.8945Z" fill="white"/>
</g>
<g filter="url(#filter34_d_5404_8876)">
<path d="M65.4842 41.4174L65.5869 40.5877C65.6211 40.3112 65.6954 40.0787 65.8096 39.8902C65.9227 39.7006 66.0672 39.5613 66.2427 39.4726C66.4183 39.3838 66.6159 39.3536 66.8356 39.382C67.0546 39.4079 67.2411 39.4857 67.3954 39.6152C67.5486 39.7446 67.6598 39.9155 67.729 40.1277C67.7985 40.3388 67.8161 40.5828 67.7818 40.8593L67.621 42.16L64.1389 41.7292L64.2298 40.9947L67.1202 41.3523L67.1902 40.7861C67.2066 40.6535 67.1966 40.5388 67.1602 40.4423C67.1226 40.3456 67.0671 40.2692 66.9935 40.2128C66.9189 40.1553 66.8339 40.1212 66.7386 40.1105C66.6005 40.0923 66.4773 40.13 66.369 40.2236C66.2598 40.316 66.1929 40.4613 66.1683 40.6596L66.0657 41.4893L65.4842 41.4174ZM64.5915 38.0703L68.0736 38.5011L67.9827 39.2356L64.5007 38.8048L64.5915 38.0703Z" fill="white"/>
</g>
<g filter="url(#filter35_d_5404_8876)">
<path d="M68.147 36.2518C68.1491 36.5076 68.107 36.7358 68.0207 36.9364C67.9332 37.1359 67.8123 37.2938 67.6579 37.4104C67.5025 37.526 67.3225 37.5863 67.1181 37.5914L67.112 36.8445C67.1976 36.8391 67.2727 36.8106 67.3374 36.7587C67.4009 36.7056 67.45 36.6355 67.4847 36.5485C67.5194 36.4614 67.5363 36.3636 67.5354 36.2551C67.5345 36.142 67.5137 36.0423 67.473 35.9558C67.4323 35.8693 67.3763 35.8018 67.3051 35.7533C67.2339 35.7047 67.1521 35.6808 67.0595 35.6816C66.9659 35.6823 66.8834 35.7094 66.8118 35.7624C66.7391 35.8144 66.6826 35.8892 66.6423 35.9865C66.602 36.0829 66.5824 36.1972 66.5834 36.3297L66.5861 36.6569L66.0414 36.6614L66.0387 36.3342C66.0378 36.2223 66.0176 36.1236 65.978 36.0383C65.9385 35.9518 65.8842 35.8848 65.8154 35.8375C65.7452 35.7901 65.664 35.7668 65.5714 35.7675C65.4835 35.7682 65.4066 35.79 65.3407 35.8328C65.2737 35.8744 65.2216 35.9331 65.1845 36.0088C65.1474 36.0834 65.1293 36.1703 65.1301 36.2697C65.131 36.3702 65.15 36.462 65.1873 36.545C65.2234 36.6281 65.2747 36.6945 65.3413 36.7442C65.408 36.7939 65.4858 36.8201 65.575 36.8228L65.5809 37.5338C65.3786 37.532 65.2001 37.4758 65.045 37.3651C64.8898 37.2545 64.7681 37.1047 64.6797 36.9159C64.5902 36.7258 64.5445 36.5109 64.5426 36.2711C64.5405 36.0289 64.5827 35.8167 64.6692 35.6344C64.7556 35.4521 64.8733 35.3101 65.022 35.2084C65.1697 35.1055 65.3361 35.0539 65.521 35.0535C65.7175 35.0508 65.8818 35.1105 66.0142 35.2327C66.1466 35.3539 66.2313 35.5126 66.2682 35.7087L66.2957 35.7085C66.3266 35.4501 66.4147 35.2529 66.5598 35.1169C66.7037 34.9799 66.8848 34.911 67.1029 34.9103C67.3027 34.9075 67.4808 34.9638 67.6371 35.079C67.7934 35.193 67.9169 35.3513 68.0076 35.5539C68.0984 35.7565 68.1449 35.9891 68.147 36.2518Z" fill="white"/>
</g>
<g filter="url(#filter36_d_5404_8876)">
<path d="M65.8024 33.6791L65.6847 32.8514C65.6455 32.5755 65.6564 32.3318 65.7174 32.12C65.7771 31.9073 65.8801 31.7352 66.0263 31.6037C66.1727 31.4721 66.3555 31.3913 66.575 31.3613C66.7931 31.3291 66.9935 31.3553 67.1763 31.4401C67.358 31.525 67.51 31.6608 67.6323 31.8477C67.7544 32.0333 67.8351 32.2641 67.8744 32.5399L68.059 33.8375L64.5854 34.3316L64.4811 33.5989L67.3645 33.1887L67.2841 32.6239C67.2654 32.4917 67.2257 32.3837 67.1654 32.2999C67.1039 32.2164 67.0302 32.1571 66.9446 32.122C66.8575 32.0859 66.7666 32.0752 66.6718 32.0898C66.5336 32.1083 66.4246 32.1769 66.3446 32.2956C66.2632 32.4133 66.2366 32.5711 66.2648 32.7689L66.3825 33.5967L65.8024 33.6791ZM64.0662 30.6815L67.5398 30.1875L67.644 30.9202L64.1704 31.4143L64.0662 30.6815Z" fill="white"/>
</g>
<g filter="url(#filter37_d_5404_8876)">
<path d="M67.3883 29.4437L66.8147 29.6065L66.7794 29.5131C66.7346 29.3929 66.6597 29.3067 66.5546 29.2546C66.4485 29.2028 66.2979 29.1844 66.1027 29.1994C65.9061 29.2137 65.6497 29.2597 65.3334 29.3376L63.8161 29.7076L63.166 27.4167L66.5414 26.459L66.7383 27.1528L63.9348 27.9483L64.2 28.8827L65.39 28.6021C65.773 28.5124 66.0946 28.4698 66.3546 28.4744C66.6145 28.4778 66.8237 28.5419 66.9826 28.6666C67.1411 28.7902 67.2589 28.9877 67.3359 29.2591L67.3883 29.4437Z" fill="white"/>
</g>
<g filter="url(#filter38_d_5404_8876)">
<path fill-rule="evenodd" clip-rule="evenodd" d="M25.3044 29.4288C25.2843 29.2491 25.2849 29.2039 25.3073 29.1769C25.3323 29.1468 25.3392 29.1468 25.3882 29.1767C25.5053 29.2481 25.6123 29.3983 25.7693 29.7116C25.9606 30.093 26.0179 30.157 26.3525 30.3621C26.8318 30.6559 27.1072 31.0796 27.2785 31.787C27.3647 32.1425 27.4019 32.4637 27.4143 32.9594C27.4295 33.57 27.4664 33.8266 27.5905 34.1865C27.7097 34.5322 27.9686 34.9626 28.2488 35.281C28.4079 35.4619 28.8884 35.9324 29.0945 36.1091C29.2411 36.2348 29.9122 36.8951 30.0928 37.0913C30.7773 37.8352 31.2934 38.4311 31.7573 39.0134C32.4872 39.9293 32.8044 40.4286 33.0505 41.0484C33.3409 41.7798 33.4548 42.4133 33.4312 43.1652C33.4148 43.6851 33.3533 44.0646 33.188 44.6651C33.1435 44.8271 33.1119 44.9643 33.1177 44.9701C33.1305 44.9828 33.3111 44.8807 33.466 44.7775L33.4346 44.8879C33.3802 45.146 33.3041 45.5261 33.2322 45.9223C33.1669 45.9492 33.1006 45.9745 33.0333 45.9983C32.8747 46.054 32.8364 46.0779 32.7094 46.2007C32.4588 46.4426 32.1704 46.603 31.7305 46.7446C30.6657 47.0876 28.9785 47.1308 26.852 46.8695C26.7242 46.8538 26.615 46.8361 26.609 46.8303C26.5888 46.8101 26.5994 46.5723 26.6244 46.4895C26.6834 46.293 26.9167 46.1392 27.3262 46.0268C27.5031 45.9783 27.5354 45.9621 27.5951 45.8927C27.7711 45.6879 27.7766 45.3095 27.6103 44.86C27.418 44.3404 27.0096 43.6858 26.4093 42.9351C26.353 42.8648 26.3016 42.8073 26.2949 42.8073C26.2882 42.8073 26.2661 42.9155 26.2458 43.0477C26.1992 43.3512 26.0804 43.9586 26.013 44.239C25.7811 45.2038 25.518 45.8925 25.2015 46.3639C25.1456 46.4471 25.081 46.5759 25.058 46.6503C25.0246 46.7583 24.9869 46.8532 24.9301 46.9727C24.9293 46.9746 24.7669 46.9919 24.5693 47.0111C24.1707 47.0501 23.8774 47.0424 23.6763 46.9879C23.6086 46.9695 23.5254 46.9473 23.4915 46.9385C23.4577 46.9297 23.4367 46.9215 23.4449 46.9204C23.4531 46.9192 23.4323 46.8751 23.3987 46.8223C23.3291 46.7129 23.3171 46.5771 23.3666 46.4591C23.4045 46.3689 23.4461 46.3439 23.7181 46.2474C23.8427 46.2032 23.9722 46.1529 24.0059 46.1356C24.2769 45.9959 24.4585 45.4617 24.6188 44.3311C24.8125 42.9658 24.8675 42.2835 24.8504 41.4575C24.8355 40.7319 24.7734 40.3217 24.6129 39.8894C24.4903 39.5585 24.3808 39.3746 24.019 38.8913C23.781 38.5734 23.5374 38.1511 23.464 37.9294C23.3627 37.6233 23.3582 37.2749 23.4501 36.8695C23.4969 36.6631 23.5338 36.5503 23.7877 35.8371C23.9885 35.273 24.0601 34.9412 24.0599 34.5751C24.0596 34.1586 23.9856 33.9217 23.8158 33.7947C23.7195 33.7227 23.6212 33.6969 23.2824 33.6549C23.0041 33.6203 22.9113 33.5966 22.7625 33.5217C22.4953 33.3873 22.3872 33.1783 22.2707 32.5708C22.247 32.4471 22.2234 32.3264 22.2184 32.3027C22.2106 32.2663 22.2339 32.2475 22.368 32.1815C22.5591 32.0875 22.8146 31.8431 22.9872 31.5891C23.2093 31.262 23.4424 30.9668 23.5669 30.8545C23.7242 30.7127 23.8355 30.6467 24.0348 30.5772C24.1888 30.5235 24.1897 30.5227 24.2351 30.4119C24.2993 30.255 24.2977 30.0038 24.2305 29.6807C24.2024 29.545 24.1792 29.3781 24.1792 29.3099V29.1859H24.2468C24.3986 29.1859 24.6058 29.3407 24.8683 29.6503C24.9755 29.7767 25.0964 29.9054 25.1369 29.9361L25.2105 29.9921L25.2697 29.9262C25.3389 29.8489 25.3437 29.7807 25.3044 29.4288Z" fill="white"/>
</g>
<g filter="url(#filter39_i_5404_8876)">
<path fill-rule="evenodd" clip-rule="evenodd" d="M45.0528 20.8999C45.5642 21.085 45.9523 21.6484 46.1397 22.4779C46.2617 23.0174 46.2586 23.8873 46.1325 24.477C45.7389 26.3199 45.6703 26.9786 45.5348 30.2183C45.4913 31.2561 45.4345 32.2862 45.4084 32.5073C45.3823 32.7285 45.2543 33.3601 45.1239 33.911C44.9009 34.8534 44.8859 34.9443 44.8697 35.4441C44.8565 35.8544 44.8664 36.0303 44.9134 36.2159C44.9792 36.4756 45.1563 36.8871 45.2621 37.0261L45.3278 37.1125L45.4929 36.9597C45.5836 36.8757 45.7014 36.7427 45.7548 36.6643C45.9644 36.3558 46.1763 35.6759 46.3724 34.6824C46.6115 33.4715 46.8013 32.8821 47.1216 32.3572C47.6175 31.5441 47.8021 30.9915 48.1709 29.2157C48.5798 27.2462 48.8409 26.5324 49.4183 25.8041C49.8803 25.2215 50.1713 25.0583 50.7152 25.0772C51.6245 25.1087 52.0705 26.0157 51.9657 27.6203C51.9174 28.3592 51.8391 28.7085 51.536 29.5372C51.1919 30.4782 50.8996 31.5139 50.4682 33.3202C50.3629 33.7608 50.2594 34.187 50.2381 34.2671C50.2167 34.3471 50.1513 34.6174 50.0928 34.8679C49.8199 36.035 49.5067 37.024 49.218 37.63C49.0302 38.024 48.9612 38.319 48.9767 38.6607C49.0139 39.4796 49.6284 39.9797 50.2469 39.6942C50.526 39.5655 50.8274 39.2357 51.2424 38.6048C52.0106 37.4371 53.0629 36.0214 54.0672 34.8043C54.9977 33.6767 55.9592 32.6255 56.2208 32.4498C56.5108 32.2551 56.7613 32.2106 57.0365 32.305C57.205 32.3628 57.2867 32.4229 57.4747 32.627C57.7345 32.9093 57.8787 33.1954 58.0165 33.7025C58.0952 33.9918 58.1033 34.0892 58.0907 34.5954C58.0784 35.0846 58.0641 35.199 57.9879 35.4177C57.8674 35.7637 57.6362 36.111 57.4133 36.2808C57.2856 36.3782 57.1278 36.5699 56.9049 36.8986C56.727 37.1606 56.2939 37.7584 55.9421 38.2269C54.3795 40.3085 53.5237 41.5986 52.7332 43.0648C51.9973 44.4294 51.6037 45.4441 50.8522 47.9139C50.6485 48.5835 50.4093 49.3273 50.3207 49.5668C50.1545 50.0159 49.4954 51.2546 49.1679 51.733C48.7756 52.3063 48.0489 53.0121 47.5173 53.3364C46.9072 53.7085 45.3894 54.3012 44.6806 54.4442C43.2391 54.7351 40.7533 54.7459 38.9547 54.4689C37.5605 54.2543 36.5421 53.8717 35.6986 53.2457C35.3341 52.9752 34.6922 52.5157 33.7522 51.8523C32.8448 51.2119 32.2817 50.6795 31.7646 49.9728C31.6336 49.7937 31.3822 49.4726 31.2061 49.259C30.0345 47.8391 29.3175 46.6347 28.8128 45.2388C28.4948 44.3593 28.1775 43.7504 27.2557 42.25C26.3749 40.8164 26.0498 40.1978 25.8261 39.5289C25.7804 39.3925 25.6902 39.2495 25.5532 39.0965C25.2895 38.8022 25.1458 38.5572 25.0648 38.264C24.789 37.2655 25.5238 36.3993 26.6216 36.4294C27.3275 36.4487 27.6791 36.6254 28.7928 37.5213C29.4029 38.0119 29.8385 38.4195 30.3501 38.9781C31.037 39.7281 31.252 40.0331 32.3596 41.8276C32.5837 42.1908 32.7902 42.4217 33.0489 42.5989C33.375 42.8221 33.6027 42.894 33.9526 42.8843C34.5214 42.8685 35.0739 42.4975 35.4578 41.8735C35.5893 41.6599 35.9922 40.5728 36.1773 39.9326C36.5952 38.4872 36.796 37.2033 36.8485 35.6425C36.8747 34.8631 36.868 34.6835 36.7785 33.7512C36.5961 31.8527 36.5844 31.5604 36.63 30.0599C36.6666 28.8549 36.6837 28.6136 36.7691 28.1015C36.8226 27.7804 36.9067 27.0648 36.9558 26.5114C37.099 24.9029 37.2421 24.2444 37.5936 23.5776C37.8952 23.0054 38.2446 22.6672 38.7818 22.4279C39.2698 22.2103 39.6753 22.2877 39.9797 22.6562C40.3625 23.1198 40.5997 24.0333 40.6452 25.2193C40.6681 25.818 40.6098 26.6279 40.5118 27.0711C40.4588 27.311 40.3801 29.9842 40.3967 30.9789C40.4155 32.0926 40.4816 33.1849 40.5828 34.0493C40.7096 35.1332 40.7816 35.4489 40.9423 35.6271C41.069 35.7676 41.1511 35.7622 41.3208 35.6023C41.5828 35.3556 41.7113 34.7378 41.6191 34.1681C41.4953 33.403 41.4994 31.9487 41.6285 30.8657C41.7263 30.0437 42.1648 27.4275 42.282 26.9665C42.3824 26.571 42.4599 25.9244 42.5229 24.9551C42.6241 23.4003 42.7278 22.8062 43.0124 22.1517C43.1457 21.8451 43.4038 21.4576 43.6261 21.2306C43.9312 20.9189 44.647 20.7529 45.0528 20.8999Z" fill="#514B38"/>
</g>
<g filter="url(#filter40_d_5404_8876)">
<path fill-rule="evenodd" clip-rule="evenodd" d="M41.6663 39.7777C41.6391 39.8012 41.492 39.9994 41.3397 40.2184C41.0768 40.5961 41.053 40.6192 40.8742 40.6711C40.4333 40.7989 40.0063 41.1896 39.7171 41.7298C39.5773 41.9911 39.5574 42.0613 39.4558 42.6498C39.3591 43.21 39.3503 43.3261 39.3819 43.6107C39.4228 43.9774 39.5521 44.3495 39.7042 44.5382C40.0501 44.967 40.724 45.0814 41.5049 44.8438C42.0375 44.6817 42.4141 44.2193 42.5195 43.5975C42.5815 43.2327 42.5484 42.9332 42.3383 41.9529C42.1647 41.1431 42.1559 41.1172 41.9859 40.9049L41.8114 40.6872L41.8074 40.2668C41.8052 40.0356 41.7991 39.8239 41.7938 39.7965C41.7815 39.7318 41.7288 39.7241 41.6663 39.7777ZM44.0099 40.1633C43.9928 40.1827 43.967 40.3894 43.9523 40.6229L43.9257 41.0473L43.7883 41.1214C43.5767 41.2357 43.4322 41.4958 43.1439 42.2812C42.6487 43.6293 42.6473 44.1077 43.136 44.8278C43.3739 45.1781 43.5332 45.2625 44.1693 45.375C44.7004 45.469 44.975 45.4453 45.2479 45.2821C45.6902 45.0175 45.9757 44.2871 45.9594 43.462C45.9468 42.8208 45.7749 42.2635 45.4309 41.7485C45.2173 41.429 45.0473 41.2632 44.7897 41.1234C44.6645 41.0555 44.5941 40.9681 44.4261 40.6727C44.2014 40.2774 44.0609 40.1054 44.0099 40.1633ZM47.0871 44.088C47.0672 44.1106 46.9614 44.2792 46.8519 44.4628C46.6636 44.7783 46.6426 44.7998 46.4679 44.8555C46.2566 44.9228 45.1175 45.7743 44.8361 46.0755C44.4982 46.4371 44.3727 46.8737 44.4879 47.2869C44.5581 47.5386 44.874 48.0089 45.1075 48.2094C45.6134 48.6437 46.1091 48.5987 46.7135 48.0637C47.5664 47.3085 47.8457 46.1733 47.391 45.3098C47.3162 45.1677 47.2972 45.0733 47.3071 44.8934C47.3362 44.3674 47.2191 43.9384 47.0871 44.088ZM38.1745 42.6619C38.0874 42.7557 37.9575 43.0369 37.872 43.3168C37.8263 43.4667 37.7735 43.5435 37.6346 43.6622C36.9864 44.2165 36.7747 45.177 37.1088 46.0469C37.2463 46.4048 37.5491 46.8575 37.7639 47.0261C37.9191 47.1481 37.9719 47.1686 38.1937 47.1929C38.4894 47.2253 38.7223 47.1655 39.0779 46.9658C39.729 46.6002 40.035 45.9925 39.8692 45.3941C39.7934 45.1203 39.6852 44.9461 39.287 44.4574C39.1397 44.2765 38.9954 44.0388 38.8958 43.8125C38.771 43.5289 38.7127 43.4406 38.6171 43.3909C38.5079 43.3341 38.4911 43.2987 38.4438 43.0258C38.3679 42.5886 38.3124 42.5135 38.1745 42.6619ZM41.9485 45.4093C41.6831 45.4161 41.3379 45.5242 41.1311 45.6653C41.0263 45.7365 40.7522 45.9929 40.5217 46.2349C40.0191 46.7628 39.6492 47.0491 39.1182 47.3212C38.9 47.433 38.6504 47.594 38.5634 47.6789C38.1237 48.1086 37.9063 49.0235 38.0875 49.6819C38.1837 50.0314 38.4762 50.4541 38.7673 50.6639C38.9751 50.8136 39.0207 50.8309 39.3506 50.8844C39.6264 50.9292 39.8297 50.933 40.2371 50.9011C40.7321 50.8624 40.8052 50.8665 41.3855 50.9651C41.9729 51.0649 42.0275 51.0808 42.4346 51.2721C42.7719 51.4306 42.9407 51.4878 43.2217 51.5392C43.5633 51.6017 43.5933 51.6005 43.8863 51.5131C44.3165 51.3847 44.7244 51.0977 44.9662 50.7533C45.1304 50.5193 45.158 50.4527 45.2304 50.1151C45.3229 49.6846 45.3281 49.3733 45.2479 49.074C45.1739 48.7981 45.0414 48.591 44.7407 48.2816C44.349 47.8784 44.0082 47.3561 43.7407 46.7485C43.6087 46.4488 43.4419 46.123 43.3701 46.0245C43.0876 45.637 42.5268 45.3942 41.9485 45.4093Z" fill="#FFE608"/>
</g>
<g filter="url(#filter41_d_5404_8876)">
<path fill-rule="evenodd" clip-rule="evenodd" d="M27.4746 50.3155C27.4438 50.3419 27.365 50.429 27.341 50.463C27.3028 50.5171 27.2522 50.6154 27.2312 50.6764C27.1799 50.825 27.1639 50.9461 27.1476 51.3091C27.1354 51.579 27.128 51.6615 27.1051 51.7766C27.0907 51.8494 27.0496 51.9804 27.0388 51.9877C27.0204 52.0002 26.7558 51.9886 26.4934 51.9637C26.1559 51.9318 26.0233 51.9237 25.8739 51.9259C25.381 51.9329 25.0704 52.0879 24.8408 52.4414C24.7024 52.6546 24.6476 52.886 24.6794 53.1233C24.6974 53.2567 24.7351 53.375 24.8062 53.5205C24.8398 53.5894 24.9803 53.7929 25.0433 53.8637C25.1669 54.0031 25.281 54.1083 25.4384 54.2283C26.0449 54.6902 26.8596 54.9913 27.8894 55.1339C28.6719 55.2423 29.1762 55.2689 29.5493 55.2213C29.9994 55.1639 30.1836 54.9975 30.1053 54.7191C30.0827 54.639 30.0353 54.5419 29.9392 54.3797C29.8334 54.2009 29.801 54.1127 29.7763 53.9359C29.7594 53.8137 29.756 53.7032 29.7616 53.4526C29.7668 53.2205 29.7658 53.121 29.7561 52.9015C29.7203 52.0927 29.6137 51.5954 29.3764 51.1312C29.3227 51.0263 29.1706 50.8028 29.0934 50.7155C28.7272 50.3012 28.2846 50.0776 27.9111 50.1179C27.8423 50.1253 27.7454 50.152 27.6805 50.1813C27.6355 50.2017 27.5178 50.2784 27.4746 50.3155Z" fill="white"/>
</g>
<path fill-rule="evenodd" clip-rule="evenodd" d="M29.9114 17.5769C29.883 17.6448 29.8407 17.7905 29.6366 18.5222C29.4806 19.0814 29.3422 19.4896 29.2156 19.7638C29.1657 19.8718 29.1373 19.9 28.8923 20.0838C28.6111 20.2948 28.3864 20.5077 28.2448 20.6971C28.1459 20.8294 27.9874 21.1471 27.8983 21.3914C27.5728 22.2838 27.0553 23.3334 26.5943 24.036C26.2696 24.5311 25.7888 25.1327 25.3364 25.6104C24.5738 26.4158 24.2112 26.926 23.9152 27.6098C23.7282 28.042 23.4027 28.6761 23.1028 29.1925C23.0408 29.2992 22.9448 29.4647 22.8894 29.5601C22.8339 29.6556 22.7189 29.8486 22.6338 29.9889C22.5487 30.1294 22.45 30.2948 22.4144 30.3566C21.8443 31.348 21.6261 31.7605 21.3935 32.2864C20.8442 33.5281 20.4665 35.0058 20.2406 36.7969C20.1873 37.2189 20.0509 37.4539 19.5607 37.9685C18.8194 38.7465 18.6917 38.9519 18.496 39.679C18.0029 41.5107 18.1963 43.6693 18.9968 45.2684C19.0625 45.3999 19.1096 45.5113 19.1014 45.5162C19.0778 45.5301 18.6548 45.4388 18.4636 45.3784C18.0481 45.2475 17.5609 44.9504 17.2341 44.6287C16.1916 43.6024 15.8248 41.7981 16.3234 40.1487C16.5611 39.3626 16.9883 38.6666 17.595 38.0773C17.9124 37.7689 17.9287 37.4766 17.6365 37.3305C17.5282 37.2764 17.4937 37.2694 17.3403 37.2704C16.89 37.2736 16.404 37.5566 16.0094 38.0453C15.5448 38.6207 15.0934 39.6944 14.9017 40.6797C14.6439 42.0048 14.8354 43.3852 15.4261 44.4576C15.7864 45.112 16.3316 45.7085 16.9751 46.1527C17.3848 46.4354 17.9911 46.7208 18.5609 46.8992C19.1658 47.0885 19.6431 47.1754 20.4644 47.2459C21.0213 47.2936 21.1195 47.2947 21.2512 47.2542C21.3994 47.2085 22.1237 47.0281 22.303 46.9923C22.6354 46.9256 22.9472 46.8943 23.2066 46.9013C23.3498 46.9051 23.467 46.9052 23.467 46.9052C23.467 46.9052 23.4441 46.8622 23.4162 46.8133C23.3562 46.7084 23.3489 46.5712 23.3968 46.4513C23.4236 46.3845 23.4478 46.3632 23.5449 46.3205C23.6088 46.2925 23.7114 46.2533 23.7729 46.2334C23.9736 46.1687 24.0912 46.1068 24.1576 46.0313C24.3968 45.759 24.5491 45.1081 24.7412 43.5387C24.9917 41.4928 24.9003 40.2816 24.4346 39.4756C24.3824 39.3853 24.2468 39.1873 24.1331 39.0358C23.8755 38.692 23.8536 38.6599 23.7212 38.4305C23.5902 38.2036 23.503 38.0075 23.4543 37.8309C23.4044 37.6496 23.4031 37.1907 23.4518 36.9628C23.4898 36.7847 23.6267 36.3559 23.794 35.8908C24.0344 35.2224 24.0904 34.9456 24.0741 34.5034C24.0576 34.0551 23.9857 33.8844 23.7697 33.7802C23.6641 33.7293 23.5965 33.7152 23.2118 33.6634C22.747 33.6009 22.5334 33.4402 22.4136 33.0629C22.372 32.9317 22.2415 32.3372 22.2417 32.2802C22.2418 32.2724 22.2855 32.2483 22.3388 32.2268C22.614 32.1156 22.7969 31.9265 23.2219 31.314C23.495 30.9205 23.7672 30.6899 24.0667 30.5983C24.2001 30.5575 24.2089 30.5508 24.2493 30.461C24.3169 30.3103 24.319 30.0567 24.255 29.7336C24.2024 29.4682 24.1864 29.2251 24.2201 29.2043C24.2548 29.1829 24.4404 29.2538 24.5501 29.3304C24.6111 29.3731 24.7623 29.5248 24.886 29.6675C25.0097 29.8103 25.137 29.9469 25.1689 29.9711L25.2269 30.0151L25.2813 29.9608C25.3316 29.9104 25.3356 29.8938 25.3345 29.7384C25.3339 29.6459 25.3258 29.492 25.3166 29.3963C25.3021 29.2481 25.3045 29.2184 25.3322 29.1953C25.3598 29.1725 25.3743 29.175 25.4258 29.2117C25.5417 29.2943 25.636 29.4284 25.764 29.6928C25.9616 30.1009 26.0355 30.1851 26.3761 30.3898C26.8555 30.6779 27.1567 31.1704 27.3141 31.9234C27.3881 32.2776 27.4092 32.492 27.429 33.093C27.4442 33.5539 27.4544 33.666 27.497 33.8488C27.6346 34.4382 27.9065 34.9262 28.3825 35.4382C28.6216 35.6953 29.2067 36.2397 29.2292 36.2258C29.2379 36.2205 29.2761 36.1498 29.3142 36.0688C29.7395 35.1629 29.8398 34.9397 29.9862 34.5736C30.3481 33.6683 30.5166 33.0381 30.5759 32.368C30.6079 32.0054 30.608 31.1047 30.576 30.6527C30.5273 29.9667 30.4046 29.1076 30.2651 28.478C30.2316 28.3265 30.209 28.184 30.2149 28.1615C30.2208 28.1389 30.1981 28.0486 30.1643 27.9609C29.904 27.2854 29.9224 26.6858 30.2225 26.0686C30.3717 25.7616 30.6492 25.4259 30.9157 25.23C31.284 24.9592 32.0391 24.7676 33.0042 24.7001C33.7879 24.6453 33.8977 24.6256 34.165 24.492C34.5171 24.316 34.7834 24.0411 34.9927 23.6378C35.1193 23.3936 35.2303 23.0943 35.2303 22.9965C35.2303 22.9039 35.1783 22.865 34.9035 22.752C33.8168 22.3055 33.1567 21.9476 32.8298 21.628C32.6928 21.4941 32.6566 21.4456 32.6378 21.3711C32.5278 20.9331 32.2376 20.6236 31.636 20.3023L31.4624 20.2096L31.4634 20.1215C31.464 20.073 31.476 19.8908 31.49 19.7166C31.535 19.1551 31.4713 18.6039 31.305 18.1144C31.245 17.9381 31.0636 17.5898 31.0363 17.5989C31.0094 17.6079 30.9294 17.8208 30.8391 18.124C30.706 18.5705 30.5866 18.9 30.5581 18.9C30.5496 18.9 30.5078 18.792 30.4651 18.66C30.3012 18.1532 30.0327 17.5385 29.9654 17.5161C29.9516 17.5115 29.9273 17.5389 29.9114 17.5769ZM26.2697 42.9943C26.2102 43.4312 26.057 44.1679 25.9249 44.6517C25.7224 45.3941 25.5049 45.9303 25.2408 46.339C25.1674 46.4524 25.0968 46.5951 25.06 46.7039C25.0268 46.8022 24.9889 46.8954 24.9758 46.9112C24.9627 46.927 24.9583 46.9461 24.9658 46.9536C25.0107 46.9985 25.9948 46.8642 26.3479 46.7649C26.5886 46.6973 26.612 46.6843 26.612 46.6189C26.612 46.3577 26.8185 46.1841 27.3112 46.031C27.5666 45.9517 27.5951 45.9306 27.6854 45.7544C27.7326 45.6624 27.7485 45.3861 27.716 45.2213C27.6358 44.8134 27.345 44.2266 26.916 43.6066C26.7416 43.3544 26.3264 42.8137 26.3072 42.8137C26.3001 42.8137 26.2832 42.895 26.2697 42.9943Z" fill="black"/>
</g>
<defs>
<filter id="filter0_d_5404_8876" x="11.9503" y="5.97852" width="49.6319" height="14.8529" filterUnits="userSpaceOnUse" color-interpolation-filters="sRGB">
<feFlood flood-opacity="0" result="BackgroundImageFix"/>
<feColorMatrix in="SourceAlpha" type="matrix" values="0 0 0 0 0 0 0 0 0 0 0 0 0 0 0 0 0 0 127 0" result="hardAlpha"/>
<feOffset dy="0.16081"/>
<feGaussianBlur stdDeviation="0.0804048"/>
<feComposite in2="hardAlpha" operator="out"/>
<feColorMatrix type="matrix" values="0 0 0 0 0 0 0 0 0 0 0 0 0 0 0 0 0 0 0.5 0"/>
<feBlend mode="normal" in2="BackgroundImageFix" result="effect1_dropShadow_5404_8876"/>
<feBlend mode="normal" in="SourceGraphic" in2="effect1_dropShadow_5404_8876" result="shape"/>
</filter>
<filter id="filter1_d_5404_8876" x="11.307" y="13.1556" width="8.09687" height="8.10028" filterUnits="userSpaceOnUse" color-interpolation-filters="sRGB">
<feFlood flood-opacity="0" result="BackgroundImageFix"/>
<feColorMatrix in="SourceAlpha" type="matrix" values="0 0 0 0 0 0 0 0 0 0 0 0 0 0 0 0 0 0 127 0" result="hardAlpha"/>
<feOffset dy="0.16081"/>
<feGaussianBlur stdDeviation="0.402024"/>
<feComposite in2="hardAlpha" operator="out"/>
<feColorMatrix type="matrix" values="0 0 0 0 0 0 0 0 0 0 0 0 0 0 0 0 0 0 0.45 0"/>
<feBlend mode="normal" in2="BackgroundImageFix" result="effect1_dropShadow_5404_8876"/>
<feBlend mode="normal" in="SourceGraphic" in2="effect1_dropShadow_5404_8876" result="shape"/>
</filter>
<filter id="filter2_d_5404_8876" x="15.2016" y="6.64387" width="11.1533" height="11.3288" filterUnits="userSpaceOnUse" color-interpolation-filters="sRGB">
<feFlood flood-opacity="0" result="BackgroundImageFix"/>
<feColorMatrix in="SourceAlpha" type="matrix" values="0 0 0 0 0 0 0 0 0 0 0 0 0 0 0 0 0 0 127 0" result="hardAlpha"/>
<feOffset dy="0.16081"/>
<feGaussianBlur stdDeviation="0.402024"/>
<feComposite in2="hardAlpha" operator="out"/>
<feColorMatrix type="matrix" values="0 0 0 0 0 0 0 0 0 0 0 0 0 0 0 0 0 0 0.45 0"/>
<feBlend mode="normal" in2="BackgroundImageFix" result="effect1_dropShadow_5404_8876"/>
<feBlend mode="normal" in="SourceGraphic" in2="effect1_dropShadow_5404_8876" result="shape"/>
</filter>
<filter id="filter3_d_5404_8876" x="23.7934" y="6.67903" width="7.63642" height="7.43622" filterUnits="userSpaceOnUse" color-interpolation-filters="sRGB">
<feFlood flood-opacity="0" result="BackgroundImageFix"/>
<feColorMatrix in="SourceAlpha" type="matrix" values="0 0 0 0 0 0 0 0 0 0 0 0 0 0 0 0 0 0 127 0" result="hardAlpha"/>
<feOffset dy="0.16081"/>
<feGaussianBlur stdDeviation="0.402024"/>
<feComposite in2="hardAlpha" operator="out"/>
<feColorMatrix type="matrix" values="0 0 0 0 0 0 0 0 0 0 0 0 0 0 0 0 0 0 0.45 0"/>
<feBlend mode="normal" in2="BackgroundImageFix" result="effect1_dropShadow_5404_8876"/>
<feBlend mode="normal" in="SourceGraphic" in2="effect1_dropShadow_5404_8876" result="shape"/>
</filter>
<filter id="filter4_d_5404_8876" x="29.9972" y="5.36848" width="6.87104" height="7.26239" filterUnits="userSpaceOnUse" color-interpolation-filters="sRGB">
<feFlood flood-opacity="0" result="BackgroundImageFix"/>
<feColorMatrix in="SourceAlpha" type="matrix" values="0 0 0 0 0 0 0 0 0 0 0 0 0 0 0 0 0 0 127 0" result="hardAlpha"/>
<feOffset dy="0.16081"/>
<feGaussianBlur stdDeviation="0.402024"/>
<feComposite in2="hardAlpha" operator="out"/>
<feColorMatrix type="matrix" values="0 0 0 0 0 0 0 0 0 0 0 0 0 0 0 0 0 0 0.45 0"/>
<feBlend mode="normal" in2="BackgroundImageFix" result="effect1_dropShadow_5404_8876"/>
<feBlend mode="normal" in="SourceGraphic" in2="effect1_dropShadow_5404_8876" result="shape"/>
</filter>
<filter id="filter5_d_5404_8876" x="36.1735" y="5.33528" width="7.57978" height="7.55146" filterUnits="userSpaceOnUse" color-interpolation-filters="sRGB">
<feFlood flood-opacity="0" result="BackgroundImageFix"/>
<feColorMatrix in="SourceAlpha" type="matrix" values="0 0 0 0 0 0 0 0 0 0 0 0 0 0 0 0 0 0 127 0" result="hardAlpha"/>
<feOffset dy="0.16081"/>
<feGaussianBlur stdDeviation="0.402024"/>
<feComposite in2="hardAlpha" operator="out"/>
<feColorMatrix type="matrix" values="0 0 0 0 0 0 0 0 0 0 0 0 0 0 0 0 0 0 0.45 0"/>
<feBlend mode="normal" in2="BackgroundImageFix" result="effect1_dropShadow_5404_8876"/>
<feBlend mode="normal" in="SourceGraphic" in2="effect1_dropShadow_5404_8876" result="shape"/>
</filter>
<filter id="filter6_d_5404_8876" x="42.6366" y="6.46223" width="8.37519" height="8.4538" filterUnits="userSpaceOnUse" color-interpolation-filters="sRGB">
<feFlood flood-opacity="0" result="BackgroundImageFix"/>
<feColorMatrix in="SourceAlpha" type="matrix" values="0 0 0 0 0 0 0 0 0 0 0 0 0 0 0 0 0 0 127 0" result="hardAlpha"/>
<feOffset dy="0.16081"/>
<feGaussianBlur stdDeviation="0.402024"/>
<feComposite in2="hardAlpha" operator="out"/>
<feColorMatrix type="matrix" values="0 0 0 0 0 0 0 0 0 0 0 0 0 0 0 0 0 0 0.45 0"/>
<feBlend mode="normal" in2="BackgroundImageFix" result="effect1_dropShadow_5404_8876"/>
<feBlend mode="normal" in="SourceGraphic" in2="effect1_dropShadow_5404_8876" result="shape"/>
</filter>
<filter id="filter7_d_5404_8876" x="48.8222" y="9.71418" width="7.60175" height="7.45575" filterUnits="userSpaceOnUse" color-interpolation-filters="sRGB">
<feFlood flood-opacity="0" result="BackgroundImageFix"/>
<feColorMatrix in="SourceAlpha" type="matrix" values="0 0 0 0 0 0 0 0 0 0 0 0 0 0 0 0 0 0 127 0" result="hardAlpha"/>
<feOffset dy="0.16081"/>
<feGaussianBlur stdDeviation="0.402024"/>
<feComposite in2="hardAlpha" operator="out"/>
<feColorMatrix type="matrix" values="0 0 0 0 0 0 0 0 0 0 0 0 0 0 0 0 0 0 0.45 0"/>
<feBlend mode="normal" in2="BackgroundImageFix" result="effect1_dropShadow_5404_8876"/>
<feBlend mode="normal" in="SourceGraphic" in2="effect1_dropShadow_5404_8876" result="shape"/>
</filter>
<filter id="filter8_d_5404_8876" x="54.1127" y="13.39" width="8.11273" height="8.08466" filterUnits="userSpaceOnUse" color-interpolation-filters="sRGB">
<feFlood flood-opacity="0" result="BackgroundImageFix"/>
<feColorMatrix in="SourceAlpha" type="matrix" values="0 0 0 0 0 0 0 0 0 0 0 0 0 0 0 0 0 0 127 0" result="hardAlpha"/>
<feOffset dy="0.16081"/>
<feGaussianBlur stdDeviation="0.402024"/>
<feComposite in2="hardAlpha" operator="out"/>
<feColorMatrix type="matrix" values="0 0 0 0 0 0 0 0 0 0 0 0 0 0 0 0 0 0 0.45 0"/>
<feBlend mode="normal" in2="BackgroundImageFix" result="effect1_dropShadow_5404_8876"/>
<feBlend mode="normal" in="SourceGraphic" in2="effect1_dropShadow_5404_8876" result="shape"/>
</filter>
<filter id="filter9_d_5404_8876" x="5.28807" y="23.1582" width="6.01883" height="5.79691" filterUnits="userSpaceOnUse" color-interpolation-filters="sRGB">
<feFlood flood-opacity="0" result="BackgroundImageFix"/>
<feColorMatrix in="SourceAlpha" type="matrix" values="0 0 0 0 0 0 0 0 0 0 0 0 0 0 0 0 0 0 127 0" result="hardAlpha"/>
<feOffset dy="0.241214"/>
<feGaussianBlur stdDeviation="0.603036"/>
<feComposite in2="hardAlpha" operator="out"/>
<feColorMatrix type="matrix" values="0 0 0 0 0 0 0 0 0 0 0 0 0 0 0 0 0 0 0.5 0"/>
<feBlend mode="normal" in2="BackgroundImageFix" result="effect1_dropShadow_5404_8876"/>
<feBlend mode="normal" in="SourceGraphic" in2="effect1_dropShadow_5404_8876" result="shape"/>
</filter>
<filter id="filter10_d_5404_8876" x="4.23289" y="26.7402" width="6.18534" height="5.48832" filterUnits="userSpaceOnUse" color-interpolation-filters="sRGB">
<feFlood flood-opacity="0" result="BackgroundImageFix"/>
<feColorMatrix in="SourceAlpha" type="matrix" values="0 0 0 0 0 0 0 0 0 0 0 0 0 0 0 0 0 0 127 0" result="hardAlpha"/>
<feOffset dy="0.241214"/>
<feGaussianBlur stdDeviation="0.603036"/>
<feComposite in2="hardAlpha" operator="out"/>
<feColorMatrix type="matrix" values="0 0 0 0 0 0 0 0 0 0 0 0 0 0 0 0 0 0 0.5 0"/>
<feBlend mode="normal" in2="BackgroundImageFix" result="effect1_dropShadow_5404_8876"/>
<feBlend mode="normal" in="SourceGraphic" in2="effect1_dropShadow_5404_8876" result="shape"/>
</filter>
<filter id="filter11_d_5404_8876" x="2.51878" y="30.4746" width="7.11454" height="6.99222" filterUnits="userSpaceOnUse" color-interpolation-filters="sRGB">
<feFlood flood-opacity="0" result="BackgroundImageFix"/>
<feColorMatrix in="SourceAlpha" type="matrix" values="0 0 0 0 0 0 0 0 0 0 0 0 0 0 0 0 0 0 127 0" result="hardAlpha"/>
<feOffset dy="0.241215"/>
<feGaussianBlur stdDeviation="0.603036"/>
<feComposite in2="hardAlpha" operator="out"/>
<feColorMatrix type="matrix" values="0 0 0 0 0 0 0 0 0 0 0 0 0 0 0 0 0 0 0.5 0"/>
<feBlend mode="normal" in2="BackgroundImageFix" result="effect1_dropShadow_5404_8876"/>
<feBlend mode="normal" in="SourceGraphic" in2="effect1_dropShadow_5404_8876" result="shape"/>
</filter>
<filter id="filter12_d_5404_8876" x="3.39989" y="35.6543" width="6.04862" height="4.9766" filterUnits="userSpaceOnUse" color-interpolation-filters="sRGB">
<feFlood flood-opacity="0" result="BackgroundImageFix"/>
<feColorMatrix in="SourceAlpha" type="matrix" values="0 0 0 0 0 0 0 0 0 0 0 0 0 0 0 0 0 0 127 0" result="hardAlpha"/>
<feOffset dy="0.241215"/>
<feGaussianBlur stdDeviation="0.603036"/>
<feComposite in2="hardAlpha" operator="out"/>
<feColorMatrix type="matrix" values="0 0 0 0 0 0 0 0 0 0 0 0 0 0 0 0 0 0 0.5 0"/>
<feBlend mode="normal" in2="BackgroundImageFix" result="effect1_dropShadow_5404_8876"/>
<feBlend mode="normal" in="SourceGraphic" in2="effect1_dropShadow_5404_8876" result="shape"/>
</filter>
<filter id="filter13_d_5404_8876" x="3.81004" y="38.8027" width="6.02152" height="5.66019" filterUnits="userSpaceOnUse" color-interpolation-filters="sRGB">
<feFlood flood-opacity="0" result="BackgroundImageFix"/>
<feColorMatrix in="SourceAlpha" type="matrix" values="0 0 0 0 0 0 0 0 0 0 0 0 0 0 0 0 0 0 127 0" result="hardAlpha"/>
<feOffset dy="0.241214"/>
<feGaussianBlur stdDeviation="0.603036"/>
<feComposite in2="hardAlpha" operator="out"/>
<feColorMatrix type="matrix" values="0 0 0 0 0 0 0 0 0 0 0 0 0 0 0 0 0 0 0.5 0"/>
<feBlend mode="normal" in2="BackgroundImageFix" result="effect1_dropShadow_5404_8876"/>
<feBlend mode="normal" in="SourceGraphic" in2="effect1_dropShadow_5404_8876" result="shape"/>
</filter>
<filter id="filter14_d_5404_8876" x="4.63817" y="42.0234" width="6.29178" height="5.34769" filterUnits="userSpaceOnUse" color-interpolation-filters="sRGB">
<feFlood flood-opacity="0" result="BackgroundImageFix"/>
<feColorMatrix in="SourceAlpha" type="matrix" values="0 0 0 0 0 0 0 0 0 0 0 0 0 0 0 0 0 0 127 0" result="hardAlpha"/>
<feOffset dy="0.241214"/>
<feGaussianBlur stdDeviation="0.603036"/>
<feComposite in2="hardAlpha" operator="out"/>
<feColorMatrix type="matrix" values="0 0 0 0 0 0 0 0 0 0 0 0 0 0 0 0 0 0 0.5 0"/>
<feBlend mode="normal" in2="BackgroundImageFix" result="effect1_dropShadow_5404_8876"/>
<feBlend mode="normal" in="SourceGraphic" in2="effect1_dropShadow_5404_8876" result="shape"/>
</filter>
<filter id="filter15_d_5404_8876" x="5.4597" y="45.2402" width="6.3389" height="5.97855" filterUnits="userSpaceOnUse" color-interpolation-filters="sRGB">
<feFlood flood-opacity="0" result="BackgroundImageFix"/>
<feColorMatrix in="SourceAlpha" type="matrix" values="0 0 0 0 0 0 0 0 0 0 0 0 0 0 0 0 0 0 127 0" result="hardAlpha"/>
<feOffset dy="0.241214"/>
<feGaussianBlur stdDeviation="0.603036"/>
<feComposite in2="hardAlpha" operator="out"/>
<feColorMatrix type="matrix" values="0 0 0 0 0 0 0 0 0 0 0 0 0 0 0 0 0 0 0.5 0"/>
<feBlend mode="normal" in2="BackgroundImageFix" result="effect1_dropShadow_5404_8876"/>
<feBlend mode="normal" in="SourceGraphic" in2="effect1_dropShadow_5404_8876" result="shape"/>
</filter>
<filter id="filter16_d_5404_8876" x="7.43651" y="48.6973" width="6.00321" height="5.86136" filterUnits="userSpaceOnUse" color-interpolation-filters="sRGB">
<feFlood flood-opacity="0" result="BackgroundImageFix"/>
<feColorMatrix in="SourceAlpha" type="matrix" values="0 0 0 0 0 0 0 0 0 0 0 0 0 0 0 0 0 0 127 0" result="hardAlpha"/>
<feOffset dy="0.241215"/>
<feGaussianBlur stdDeviation="0.603036"/>
<feComposite in2="hardAlpha" operator="out"/>
<feColorMatrix type="matrix" values="0 0 0 0 0 0 0 0 0 0 0 0 0 0 0 0 0 0 0.5 0"/>
<feBlend mode="normal" in2="BackgroundImageFix" result="effect1_dropShadow_5404_8876"/>
<feBlend mode="normal" in="SourceGraphic" in2="effect1_dropShadow_5404_8876" result="shape"/>
</filter>
<filter id="filter17_d_5404_8876" x="10.435" y="52.9824" width="5.91239" height="5.83207" filterUnits="userSpaceOnUse" color-interpolation-filters="sRGB">
<feFlood flood-opacity="0" result="BackgroundImageFix"/>
<feColorMatrix in="SourceAlpha" type="matrix" values="0 0 0 0 0 0 0 0 0 0 0 0 0 0 0 0 0 0 127 0" result="hardAlpha"/>
<feOffset dy="0.241214"/>
<feGaussianBlur stdDeviation="0.603036"/>
<feComposite in2="hardAlpha" operator="out"/>
<feColorMatrix type="matrix" values="0 0 0 0 0 0 0 0 0 0 0 0 0 0 0 0 0 0 0.5 0"/>
<feBlend mode="normal" in2="BackgroundImageFix" result="effect1_dropShadow_5404_8876"/>
<feBlend mode="normal" in="SourceGraphic" in2="effect1_dropShadow_5404_8876" result="shape"/>
</filter>
<filter id="filter18_d_5404_8876" x="12.259" y="55.6738" width="6.39017" height="6.45511" filterUnits="userSpaceOnUse" color-interpolation-filters="sRGB">
<feFlood flood-opacity="0" result="BackgroundImageFix"/>
<feColorMatrix in="SourceAlpha" type="matrix" values="0 0 0 0 0 0 0 0 0 0 0 0 0 0 0 0 0 0 127 0" result="hardAlpha"/>
<feOffset dy="0.241214"/>
<feGaussianBlur stdDeviation="0.603036"/>
<feComposite in2="hardAlpha" operator="out"/>
<feColorMatrix type="matrix" values="0 0 0 0 0 0 0 0 0 0 0 0 0 0 0 0 0 0 0.5 0"/>
<feBlend mode="normal" in2="BackgroundImageFix" result="effect1_dropShadow_5404_8876"/>
<feBlend mode="normal" in="SourceGraphic" in2="effect1_dropShadow_5404_8876" result="shape"/>
</filter>
<filter id="filter19_d_5404_8876" x="15.5134" y="57.4883" width="7.83402" height="8.52933" filterUnits="userSpaceOnUse" color-interpolation-filters="sRGB">
<feFlood flood-opacity="0" result="BackgroundImageFix"/>
<feColorMatrix in="SourceAlpha" type="matrix" values="0 0 0 0 0 0 0 0 0 0 0 0 0 0 0 0 0 0 127 0" result="hardAlpha"/>
<feOffset dy="0.241214"/>
<feGaussianBlur stdDeviation="0.603036"/>
<feComposite in2="hardAlpha" operator="out"/>
<feColorMatrix type="matrix" values="0 0 0 0 0 0 0 0 0 0 0 0 0 0 0 0 0 0 0.5 0"/>
<feBlend mode="normal" in2="BackgroundImageFix" result="effect1_dropShadow_5404_8876"/>
<feBlend mode="normal" in="SourceGraphic" in2="effect1_dropShadow_5404_8876" result="shape"/>
</filter>
<filter id="filter20_d_5404_8876" x="20.0559" y="60.1543" width="6.57865" height="6.84769" filterUnits="userSpaceOnUse" color-interpolation-filters="sRGB">
<feFlood flood-opacity="0" result="BackgroundImageFix"/>
<feColorMatrix in="SourceAlpha" type="matrix" values="0 0 0 0 0 0 0 0 0 0 0 0 0 0 0 0 0 0 127 0" result="hardAlpha"/>
<feOffset dy="0.241214"/>
<feGaussianBlur stdDeviation="0.603036"/>
<feComposite in2="hardAlpha" operator="out"/>
<feColorMatrix type="matrix" values="0 0 0 0 0 0 0 0 0 0 0 0 0 0 0 0 0 0 0.5 0"/>
<feBlend mode="normal" in2="BackgroundImageFix" result="effect1_dropShadow_5404_8876"/>
<feBlend mode="normal" in="SourceGraphic" in2="effect1_dropShadow_5404_8876" result="shape"/>
</filter>
<filter id="filter21_d_5404_8876" x="24.5569" y="61.6465" width="5.33793" height="6.31449" filterUnits="userSpaceOnUse" color-interpolation-filters="sRGB">
<feFlood flood-opacity="0" result="BackgroundImageFix"/>
<feColorMatrix in="SourceAlpha" type="matrix" values="0 0 0 0 0 0 0 0 0 0 0 0 0 0 0 0 0 0 127 0" result="hardAlpha"/>
<feOffset dy="0.241214"/>
<feGaussianBlur stdDeviation="0.603036"/>
<feComposite in2="hardAlpha" operator="out"/>
<feColorMatrix type="matrix" values="0 0 0 0 0 0 0 0 0 0 0 0 0 0 0 0 0 0 0.5 0"/>
<feBlend mode="normal" in2="BackgroundImageFix" result="effect1_dropShadow_5404_8876"/>
<feBlend mode="normal" in="SourceGraphic" in2="effect1_dropShadow_5404_8876" result="shape"/>
</filter>
<filter id="filter22_d_5404_8876" x="27.2512" y="62.7226" width="6.69901" height="6.55863" filterUnits="userSpaceOnUse" color-interpolation-filters="sRGB">
<feFlood flood-opacity="0" result="BackgroundImageFix"/>
<feColorMatrix in="SourceAlpha" type="matrix" values="0 0 0 0 0 0 0 0 0 0 0 0 0 0 0 0 0 0 127 0" result="hardAlpha"/>
<feOffset dy="0.241214"/>
<feGaussianBlur stdDeviation="0.603036"/>
<feComposite in2="hardAlpha" operator="out"/>
<feColorMatrix type="matrix" values="0 0 0 0 0 0 0 0 0 0 0 0 0 0 0 0 0 0 0.5 0"/>
<feBlend mode="normal" in2="BackgroundImageFix" result="effect1_dropShadow_5404_8876"/>
<feBlend mode="normal" in="SourceGraphic" in2="effect1_dropShadow_5404_8876" result="shape"/>
</filter>
<filter id="filter23_d_5404_8876" x="33.3332" y="63.5371" width="7.4036" height="6.03324" filterUnits="userSpaceOnUse" color-interpolation-filters="sRGB">
<feFlood flood-opacity="0" result="BackgroundImageFix"/>
<feColorMatrix in="SourceAlpha" type="matrix" values="0 0 0 0 0 0 0 0 0 0 0 0 0 0 0 0 0 0 127 0" result="hardAlpha"/>
<feOffset dy="0.241215"/>
<feGaussianBlur stdDeviation="0.603036"/>
<feComposite in2="hardAlpha" operator="out"/>
<feColorMatrix type="matrix" values="0 0 0 0 0 0 0 0 0 0 0 0 0 0 0 0 0 0 0.5 0"/>
<feBlend mode="normal" in2="BackgroundImageFix" result="effect1_dropShadow_5404_8876"/>
<feBlend mode="normal" in="SourceGraphic" in2="effect1_dropShadow_5404_8876" result="shape"/>
</filter>
<filter id="filter24_d_5404_8876" x="38.5293" y="62.9277" width="5.91092" height="6.37699" filterUnits="userSpaceOnUse" color-interpolation-filters="sRGB">
<feFlood flood-opacity="0" result="BackgroundImageFix"/>
<feColorMatrix in="SourceAlpha" type="matrix" values="0 0 0 0 0 0 0 0 0 0 0 0 0 0 0 0 0 0 127 0" result="hardAlpha"/>
<feOffset dy="0.241214"/>
<feGaussianBlur stdDeviation="0.603036"/>
<feComposite in2="hardAlpha" operator="out"/>
<feColorMatrix type="matrix" values="0 0 0 0 0 0 0 0 0 0 0 0 0 0 0 0 0 0 0.5 0"/>
<feBlend mode="normal" in2="BackgroundImageFix" result="effect1_dropShadow_5404_8876"/>
<feBlend mode="normal" in="SourceGraphic" in2="effect1_dropShadow_5404_8876" result="shape"/>
</filter>
<filter id="filter25_d_5404_8876" x="42.0058" y="62.293" width="5.78348" height="6.26371" filterUnits="userSpaceOnUse" color-interpolation-filters="sRGB">
<feFlood flood-opacity="0" result="BackgroundImageFix"/>
<feColorMatrix in="SourceAlpha" type="matrix" values="0 0 0 0 0 0 0 0 0 0 0 0 0 0 0 0 0 0 127 0" result="hardAlpha"/>
<feOffset dy="0.241214"/>
<feGaussianBlur stdDeviation="0.603036"/>
<feComposite in2="hardAlpha" operator="out"/>
<feColorMatrix type="matrix" values="0 0 0 0 0 0 0 0 0 0 0 0 0 0 0 0 0 0 0.5 0"/>
<feBlend mode="normal" in2="BackgroundImageFix" result="effect1_dropShadow_5404_8876"/>
<feBlend mode="normal" in="SourceGraphic" in2="effect1_dropShadow_5404_8876" result="shape"/>
</filter>
<filter id="filter26_d_5404_8876" x="45.48" y="61.0293" width="5.81937" height="6.01371" filterUnits="userSpaceOnUse" color-interpolation-filters="sRGB">
<feFlood flood-opacity="0" result="BackgroundImageFix"/>
<feColorMatrix in="SourceAlpha" type="matrix" values="0 0 0 0 0 0 0 0 0 0 0 0 0 0 0 0 0 0 127 0" result="hardAlpha"/>
<feOffset dy="0.241215"/>
<feGaussianBlur stdDeviation="0.603037"/>
<feComposite in2="hardAlpha" operator="out"/>
<feColorMatrix type="matrix" values="0 0 0 0 0 0 0 0 0 0 0 0 0 0 0 0 0 0 0.5 0"/>
<feBlend mode="normal" in2="BackgroundImageFix" result="effect1_dropShadow_5404_8876"/>
<feBlend mode="normal" in="SourceGraphic" in2="effect1_dropShadow_5404_8876" result="shape"/>
</filter>
<filter id="filter27_d_5404_8876" x="48.3447" y="58.8926" width="5.76297" height="6.3516" filterUnits="userSpaceOnUse" color-interpolation-filters="sRGB">
<feFlood flood-opacity="0" result="BackgroundImageFix"/>
<feColorMatrix in="SourceAlpha" type="matrix" values="0 0 0 0 0 0 0 0 0 0 0 0 0 0 0 0 0 0 127 0" result="hardAlpha"/>
<feOffset dy="0.241215"/>
<feGaussianBlur stdDeviation="0.603036"/>
<feComposite in2="hardAlpha" operator="out"/>
<feColorMatrix type="matrix" values="0 0 0 0 0 0 0 0 0 0 0 0 0 0 0 0 0 0 0.5 0"/>
<feBlend mode="normal" in2="BackgroundImageFix" result="effect1_dropShadow_5404_8876"/>
<feBlend mode="normal" in="SourceGraphic" in2="effect1_dropShadow_5404_8876" result="shape"/>
</filter>
<filter id="filter28_d_5404_8876" x="51.2192" y="56.8047" width="6.92337" height="7.01566" filterUnits="userSpaceOnUse" color-interpolation-filters="sRGB">
<feFlood flood-opacity="0" result="BackgroundImageFix"/>
<feColorMatrix in="SourceAlpha" type="matrix" values="0 0 0 0 0 0 0 0 0 0 0 0 0 0 0 0 0 0 127 0" result="hardAlpha"/>
<feOffset dy="0.241215"/>
<feGaussianBlur stdDeviation="0.603036"/>
<feComposite in2="hardAlpha" operator="out"/>
<feColorMatrix type="matrix" values="0 0 0 0 0 0 0 0 0 0 0 0 0 0 0 0 0 0 0.5 0"/>
<feBlend mode="normal" in2="BackgroundImageFix" result="effect1_dropShadow_5404_8876"/>
<feBlend mode="normal" in="SourceGraphic" in2="effect1_dropShadow_5404_8876" result="shape"/>
</filter>
<filter id="filter29_d_5404_8876" x="54.0246" y="53.8183" width="7.49808" height="7.50199" filterUnits="userSpaceOnUse" color-interpolation-filters="sRGB">
<feFlood flood-opacity="0" result="BackgroundImageFix"/>
<feColorMatrix in="SourceAlpha" type="matrix" values="0 0 0 0 0 0 0 0 0 0 0 0 0 0 0 0 0 0 127 0" result="hardAlpha"/>
<feOffset dy="0.241214"/>
<feGaussianBlur stdDeviation="0.603036"/>
<feComposite in2="hardAlpha" operator="out"/>
<feColorMatrix type="matrix" values="0 0 0 0 0 0 0 0 0 0 0 0 0 0 0 0 0 0 0.5 0"/>
<feBlend mode="normal" in2="BackgroundImageFix" result="effect1_dropShadow_5404_8876"/>
<feBlend mode="normal" in="SourceGraphic" in2="effect1_dropShadow_5404_8876" result="shape"/>
</filter>
<filter id="filter30_d_5404_8876" x="56.8496" y="51" width="7.1055" height="7.02738" filterUnits="userSpaceOnUse" color-interpolation-filters="sRGB">
<feFlood flood-opacity="0" result="BackgroundImageFix"/>
<feColorMatrix in="SourceAlpha" type="matrix" values="0 0 0 0 0 0 0 0 0 0 0 0 0 0 0 0 0 0 127 0" result="hardAlpha"/>
<feOffset dy="0.241214"/>
<feGaussianBlur stdDeviation="0.603036"/>
<feComposite in2="hardAlpha" operator="out"/>
<feColorMatrix type="matrix" values="0 0 0 0 0 0 0 0 0 0 0 0 0 0 0 0 0 0 0.5 0"/>
<feBlend mode="normal" in2="BackgroundImageFix" result="effect1_dropShadow_5404_8876"/>
<feBlend mode="normal" in="SourceGraphic" in2="effect1_dropShadow_5404_8876" result="shape"/>
</filter>
<filter id="filter31_d_5404_8876" x="59.677" y="47.3281" width="5.87064" height="6.08988" filterUnits="userSpaceOnUse" color-interpolation-filters="sRGB">
<feFlood flood-opacity="0" result="BackgroundImageFix"/>
<feColorMatrix in="SourceAlpha" type="matrix" values="0 0 0 0 0 0 0 0 0 0 0 0 0 0 0 0 0 0 127 0" result="hardAlpha"/>
<feOffset dy="0.241214"/>
<feGaussianBlur stdDeviation="0.603036"/>
<feComposite in2="hardAlpha" operator="out"/>
<feColorMatrix type="matrix" values="0 0 0 0 0 0 0 0 0 0 0 0 0 0 0 0 0 0 0.5 0"/>
<feBlend mode="normal" in2="BackgroundImageFix" result="effect1_dropShadow_5404_8876"/>
<feBlend mode="normal" in="SourceGraphic" in2="effect1_dropShadow_5404_8876" result="shape"/>
</filter>
<filter id="filter32_d_5404_8876" x="63.6728" y="47.084" width="3.2327" height="3.23636" filterUnits="userSpaceOnUse" color-interpolation-filters="sRGB">
<feFlood flood-opacity="0" result="BackgroundImageFix"/>
<feColorMatrix in="SourceAlpha" type="matrix" values="0 0 0 0 0 0 0 0 0 0 0 0 0 0 0 0 0 0 127 0" result="hardAlpha"/>
<feOffset dy="0.241215"/>
<feGaussianBlur stdDeviation="0.603036"/>
<feComposite in2="hardAlpha" operator="out"/>
<feColorMatrix type="matrix" values="0 0 0 0 0 0 0 0 0 0 0 0 0 0 0 0 0 0 0.5 0"/>
<feBlend mode="normal" in2="BackgroundImageFix" result="effect1_dropShadow_5404_8876"/>
<feBlend mode="normal" in="SourceGraphic" in2="effect1_dropShadow_5404_8876" result="shape"/>
</filter>
<filter id="filter33_d_5404_8876" x="62.0469" y="41.1992" width="6.58548" height="6.19339" filterUnits="userSpaceOnUse" color-interpolation-filters="sRGB">
<feFlood flood-opacity="0" result="BackgroundImageFix"/>
<feColorMatrix in="SourceAlpha" type="matrix" values="0 0 0 0 0 0 0 0 0 0 0 0 0 0 0 0 0 0 127 0" result="hardAlpha"/>
<feOffset dy="0.241214"/>
<feGaussianBlur stdDeviation="0.603036"/>
<feComposite in2="hardAlpha" operator="out"/>
<feColorMatrix type="matrix" values="0 0 0 0 0 0 0 0 0 0 0 0 0 0 0 0 0 0 0.5 0"/>
<feBlend mode="normal" in2="BackgroundImageFix" result="effect1_dropShadow_5404_8876"/>
<feBlend mode="normal" in="SourceGraphic" in2="effect1_dropShadow_5404_8876" result="shape"/>
</filter>
<filter id="filter34_d_5404_8876" x="62.9328" y="37.1055" width="6.34671" height="6.50199" filterUnits="userSpaceOnUse" color-interpolation-filters="sRGB">
<feFlood flood-opacity="0" result="BackgroundImageFix"/>
<feColorMatrix in="SourceAlpha" type="matrix" values="0 0 0 0 0 0 0 0 0 0 0 0 0 0 0 0 0 0 127 0" result="hardAlpha"/>
<feOffset dy="0.241215"/>
<feGaussianBlur stdDeviation="0.603036"/>
<feComposite in2="hardAlpha" operator="out"/>
<feColorMatrix type="matrix" values="0 0 0 0 0 0 0 0 0 0 0 0 0 0 0 0 0 0 0.5 0"/>
<feBlend mode="normal" in2="BackgroundImageFix" result="effect1_dropShadow_5404_8876"/>
<feBlend mode="normal" in="SourceGraphic" in2="effect1_dropShadow_5404_8876" result="shape"/>
</filter>
<filter id="filter35_d_5404_8876" x="63.3364" y="33.9453" width="6.01664" height="5.09378" filterUnits="userSpaceOnUse" color-interpolation-filters="sRGB">
<feFlood flood-opacity="0" result="BackgroundImageFix"/>
<feColorMatrix in="SourceAlpha" type="matrix" values="0 0 0 0 0 0 0 0 0 0 0 0 0 0 0 0 0 0 127 0" result="hardAlpha"/>
<feOffset dy="0.241214"/>
<feGaussianBlur stdDeviation="0.603036"/>
<feComposite in2="hardAlpha" operator="out"/>
<feColorMatrix type="matrix" values="0 0 0 0 0 0 0 0 0 0 0 0 0 0 0 0 0 0 0.5 0"/>
<feBlend mode="normal" in2="BackgroundImageFix" result="effect1_dropShadow_5404_8876"/>
<feBlend mode="normal" in="SourceGraphic" in2="effect1_dropShadow_5404_8876" result="shape"/>
</filter>
<filter id="filter36_d_5404_8876" x="62.8601" y="29.2226" width="6.40506" height="6.55668" filterUnits="userSpaceOnUse" color-interpolation-filters="sRGB">
<feFlood flood-opacity="0" result="BackgroundImageFix"/>
<feColorMatrix in="SourceAlpha" type="matrix" values="0 0 0 0 0 0 0 0 0 0 0 0 0 0 0 0 0 0 127 0" result="hardAlpha"/>
<feOffset dy="0.241214"/>
<feGaussianBlur stdDeviation="0.603036"/>
<feComposite in2="hardAlpha" operator="out"/>
<feColorMatrix type="matrix" values="0 0 0 0 0 0 0 0 0 0 0 0 0 0 0 0 0 0 0.5 0"/>
<feBlend mode="normal" in2="BackgroundImageFix" result="effect1_dropShadow_5404_8876"/>
<feBlend mode="normal" in="SourceGraphic" in2="effect1_dropShadow_5404_8876" result="shape"/>
</filter>
<filter id="filter37_d_5404_8876" x="61.9599" y="25.4941" width="6.63456" height="5.66019" filterUnits="userSpaceOnUse" color-interpolation-filters="sRGB">
<feFlood flood-opacity="0" result="BackgroundImageFix"/>
<feColorMatrix in="SourceAlpha" type="matrix" values="0 0 0 0 0 0 0 0 0 0 0 0 0 0 0 0 0 0 127 0" result="hardAlpha"/>
<feOffset dy="0.241214"/>
<feGaussianBlur stdDeviation="0.603036"/>
<feComposite in2="hardAlpha" operator="out"/>
<feColorMatrix type="matrix" values="0 0 0 0 0 0 0 0 0 0 0 0 0 0 0 0 0 0 0.5 0"/>
<feBlend mode="normal" in2="BackgroundImageFix" result="effect1_dropShadow_5404_8876"/>
<feBlend mode="normal" in="SourceGraphic" in2="effect1_dropShadow_5404_8876" result="shape"/>
</filter>
<filter id="filter38_d_5404_8876" x="21.614" y="28.5111" width="12.8571" height="19.4909" filterUnits="userSpaceOnUse" color-interpolation-filters="sRGB">
<feFlood flood-opacity="0" result="BackgroundImageFix"/>
<feColorMatrix in="SourceAlpha" type="matrix" values="0 0 0 0 0 0 0 0 0 0 0 0 0 0 0 0 0 0 127 0" result="hardAlpha"/>
<feOffset dx="0.201012" dy="0.16081"/>
<feGaussianBlur stdDeviation="0.402024"/>
<feComposite in2="hardAlpha" operator="out"/>
<feColorMatrix type="matrix" values="0 0 0 0 0 0 0 0 0 0 0 0 0 0 0 0 0 0 0.5 0"/>
<feBlend mode="normal" in2="BackgroundImageFix" result="effect1_dropShadow_5404_8876"/>
<feBlend mode="normal" in="SourceGraphic" in2="effect1_dropShadow_5404_8876" result="shape"/>
</filter>
<filter id="filter39_i_5404_8876" x="25.0066" y="20.8457" width="33.2899" height="33.985" filterUnits="userSpaceOnUse" color-interpolation-filters="sRGB">
<feFlood flood-opacity="0" result="BackgroundImageFix"/>
<feBlend mode="normal" in="SourceGraphic" in2="BackgroundImageFix" result="shape"/>
<feColorMatrix in="SourceAlpha" type="matrix" values="0 0 0 0 0 0 0 0 0 0 0 0 0 0 0 0 0 0 127 0" result="hardAlpha"/>
<feOffset dx="0.201012" dy="0.16081"/>
<feGaussianBlur stdDeviation="0.603036"/>
<feComposite in2="hardAlpha" operator="arithmetic" k2="-1" k3="1"/>
<feColorMatrix type="matrix" values="0 0 0 0 0 0 0 0 0 0 0 0 0 0 0 0 0 0 0.5 0"/>
<feBlend mode="normal" in2="shape" result="effect1_innerShadow_5404_8876"/>
</filter>
<filter id="filter40_d_5404_8876" x="36.3491" y="39.0989" width="12.2631" height="13.4479" filterUnits="userSpaceOnUse" color-interpolation-filters="sRGB">
<feFlood flood-opacity="0" result="BackgroundImageFix"/>
<feColorMatrix in="SourceAlpha" type="matrix" values="0 0 0 0 0 0 0 0 0 0 0 0 0 0 0 0 0 0 127 0" result="hardAlpha"/>
<feOffset dx="0.201012" dy="0.16081"/>
<feGaussianBlur stdDeviation="0.402024"/>
<feComposite in2="hardAlpha" operator="out"/>
<feColorMatrix type="matrix" values="0 0 0 0 0 0 0 0 0 0 0 0 0 0 0 0 0 0 0.5 0"/>
<feBlend mode="normal" in2="BackgroundImageFix" result="effect1_dropShadow_5404_8876"/>
<feBlend mode="normal" in="SourceGraphic" in2="effect1_dropShadow_5404_8876" result="shape"/>
</filter>
<filter id="filter41_d_5404_8876" x="24.0676" y="49.47" width="7.06024" height="6.73896" filterUnits="userSpaceOnUse" color-interpolation-filters="sRGB">
<feFlood flood-opacity="0" result="BackgroundImageFix"/>
<feColorMatrix in="SourceAlpha" type="matrix" values="0 0 0 0 0 0 0 0 0 0 0 0 0 0 0 0 0 0 127 0" result="hardAlpha"/>
<feOffset dx="0.201012" dy="0.16081"/>
<feGaussianBlur stdDeviation="0.402024"/>
<feComposite in2="hardAlpha" operator="out"/>
<feColorMatrix type="matrix" values="0 0 0 0 0 0 0 0 0 0 0 0 0 0 0 0 0 0 0.5 0"/>
<feBlend mode="normal" in2="BackgroundImageFix" result="effect1_dropShadow_5404_8876"/>
<feBlend mode="normal" in="SourceGraphic" in2="effect1_dropShadow_5404_8876" result="shape"/>
</filter>
<radialGradient id="paint0_radial_5404_8876" cx="0" cy="0" r="1" gradientUnits="userSpaceOnUse" gradientTransform="translate(36.2311 36.1691) rotate(90) scale(35.7355)">
<stop offset="0.195833" stop-color="#3FED6F"/>
<stop offset="1" stop-color="#009479"/>
</radialGradient>
<clipPath id="clip0_5404_8876">
<rect width="72" height="72" fill="white"/>
</clipPath>
</defs>
</svg>
