<svg width="20" height="21" viewBox="0 0 20 21" fill="none" xmlns="http://www.w3.org/2000/svg">
<path fill-rule="evenodd" clip-rule="evenodd" d="M2.45613 0.901017C2.18669 0.640792 1.82583 0.496799 1.45127 0.500054C1.0767 0.503309 0.718397 0.653551 0.453528 0.918419C0.188659 1.18329 0.0384177 1.54159 0.0351628 1.91616C0.0319079 2.29072 0.1759 2.65159 0.436126 2.92102L7.99755 10.4824L0.436126 18.0439C0.299683 18.1757 0.190851 18.3333 0.115981 18.5076C0.0411112 18.6819 0.00170225 18.8693 5.39386e-05 19.059C-0.00159437 19.2487 0.0345506 19.4368 0.10638 19.6124C0.17821 19.7879 0.284286 19.9474 0.418419 20.0816C0.552551 20.2157 0.712054 20.3218 0.88762 20.3936C1.06319 20.4654 1.2513 20.5016 1.44098 20.4999C1.63067 20.4983 1.81813 20.4589 1.99242 20.384C2.16671 20.3091 2.32434 20.2003 2.45613 20.0639L10.0176 12.5024L17.579 20.0639C17.8484 20.3241 18.2093 20.4681 18.5838 20.4648C18.9584 20.4616 19.3167 20.3113 19.5816 20.0465C19.8464 19.7816 19.9967 19.4233 19.9999 19.0487C20.0032 18.6742 19.8592 18.3133 19.599 18.0439L12.0376 10.4824L19.599 2.92102C19.8592 2.65159 20.0032 2.29072 19.9999 1.91616C19.9967 1.54159 19.8464 1.18329 19.5816 0.918419C19.3167 0.653551 18.9584 0.503309 18.5838 0.500054C18.2093 0.496799 17.8484 0.640792 17.579 0.901017L10.0176 8.46245L2.45613 0.901017Z" fill="#1A0710" fill-opacity="0.85"/>
</svg>
