<svg width="317" height="28" viewBox="0 0 317 28" fill="none" xmlns="http://www.w3.org/2000/svg">
<path d="M315 6.89131C298.891 6.89131 282.985 8.46827 266.906 9.75371C222.94 13.2685 178.818 15.1861 134.929 20.0372C104.351 23.417 74.2007 25.974 43.5173 25.974C30.3247 25.974 18.8623 26.6071 6.11053 21.6274C4.52757 21.0092 -0.10931 20.5526 3.11475 18.5529C8.71699 15.0783 16.2483 16.1105 22.223 15.2665C53.5387 10.8429 84.6864 6.37804 116.064 3.07478C131.024 1.49982 146.084 2.12065 161.082 2.12065C174.099 2.12065 187.114 2.05393 200.108 3.28681C216.476 4.83981 232.785 7.62763 249.255 7.84545C255.137 7.92325 261.023 7.84545 266.906 7.84545" stroke="#F77546" stroke-width="3" stroke-linecap="round"/>
</svg>
