<svg width="23" height="23" viewBox="0 0 23 23" fill="none" xmlns="http://www.w3.org/2000/svg">
<path d="M17.6001 0.000545502C20.7467 0.000545502 22.3201 2.45388 22.3201 7.36054C22.3201 9.22721 21.9467 11.3605 21.2001 13.7605C20.4534 16.2139 19.5467 18.2939 18.4801 20.0005C17.4134 21.7072 16.4801 22.5605 15.6801 22.5605C14.8267 22.5605 14.4001 21.9205 14.4001 20.6405L16.7201 15.6005C18.0534 12.6672 18.7734 10.5339 18.8801 9.20054C17.4401 9.78721 16.4267 10.0805 15.8401 10.0805C15.0934 10.0805 14.4534 9.62721 13.9201 8.72054C13.3867 7.86721 13.1201 6.77388 13.1201 5.44054C13.1201 3.94721 13.5467 2.66721 14.4001 1.60054C15.2001 0.533878 16.2667 0.000545502 17.6001 0.000545502ZM5.04007 0.640543C6.48007 0.640543 7.62673 1.49388 8.48007 3.20054C9.28007 4.90721 9.68007 6.90721 9.68007 9.20054C9.68007 12.7739 7.8934 16.7472 4.32007 21.1205C3.78674 21.5472 3.2534 21.7605 2.72007 21.7605C1.76007 21.7605 1.28007 21.3339 1.28007 20.4805C1.28007 20.0539 1.38673 19.6539 1.60007 19.2805C3.78673 16.5072 5.0934 14.4272 5.52007 13.0405C5.8934 11.4405 6.08007 10.3739 6.08007 9.84054C6.08007 9.25388 6.02674 8.58721 5.92007 7.84055C5.06673 8.26721 4.24007 8.48055 3.44007 8.48055C2.48007 8.48055 1.68007 8.21388 1.04007 7.68054C0.346733 7.14721 6.86646e-05 6.45388 6.86646e-05 5.60055C6.86646e-05 4.69388 0.613401 3.62721 1.84007 2.40054C3.06674 1.22721 4.1334 0.640543 5.04007 0.640543Z" fill="#A5A2BA"/>
</svg>
