<svg width="23" height="23" viewBox="0 0 23 23" fill="none" xmlns="http://www.w3.org/2000/svg">
<path d="M5.24002 22.6401C2.09335 22.6401 0.52002 20.1867 0.52002 15.2801C0.52002 13.4134 0.893353 11.2801 1.64002 8.88008C2.38669 6.42675 3.29335 4.34675 4.36002 2.64008C5.42669 0.933413 6.36002 0.0800781 7.16002 0.0800781C8.01335 0.0800781 8.44002 0.720079 8.44002 2.00008L6.12002 7.04008C4.78669 9.97341 4.06669 12.1067 3.96002 13.4401C5.40002 12.8534 6.41335 12.5601 7.00002 12.5601C7.74669 12.5601 8.38669 13.0134 8.92002 13.9201C9.45335 14.7734 9.72002 15.8667 9.72002 17.2001C9.72002 18.6934 9.29335 19.9734 8.44002 21.0401C7.64002 22.1067 6.57335 22.6401 5.24002 22.6401ZM17.8 22.0001C16.36 22.0001 15.2134 21.1467 14.36 19.4401C13.56 17.7334 13.16 15.7334 13.16 13.4401C13.16 9.86675 14.9467 5.89341 18.52 1.52008C19.0534 1.09341 19.5867 0.880077 20.12 0.880077C21.08 0.880077 21.56 1.30674 21.56 2.16008C21.56 2.58675 21.4534 2.98675 21.24 3.36008C19.0534 6.13341 17.7467 8.21342 17.32 9.60008C16.9467 11.2001 16.76 12.2667 16.76 12.8001C16.76 13.3867 16.8134 14.0534 16.92 14.8001C17.7734 14.3734 18.6 14.1601 19.4 14.1601C20.36 14.1601 21.16 14.4267 21.8 14.9601C22.4934 15.4934 22.84 16.1867 22.84 17.0401C22.84 17.9467 22.2267 19.0134 21 20.2401C19.7734 21.4134 18.7067 22.0001 17.8 22.0001Z" fill="#A5A2BA"/>
</svg>
