<svg width="28" height="20" viewBox="0 0 28 20" fill="none" xmlns="http://www.w3.org/2000/svg">
<path fill-rule="evenodd" clip-rule="evenodd" d="M1.66667 3.33333C0.746194 3.33333 0 2.58714 0 1.66667C0 0.746192 0.746192 0 1.66667 0H26.3333C27.2538 0 28 0.746192 28 1.66667C28 2.58714 27.2538 3.33333 26.3333 3.33333H1.66667ZM0 10C0 10.9205 0.746192 11.6667 1.66667 11.6667H26.3333C27.2538 11.6667 28 10.9205 28 10C28 9.07952 27.2538 8.33333 26.3333 8.33333H1.66667C0.746191 8.33333 0 9.07952 0 10ZM0 18.3333C0 19.2538 0.746193 20 1.66667 20H26.3333C27.2538 20 28 19.2538 28 18.3333C28 17.4129 27.2538 16.6667 26.3333 16.6667H1.66667C0.746194 16.6667 0 17.4129 0 18.3333Z" fill="#3B2B33"/>
</svg>
