<svg width="187" height="40" viewBox="0 0 187 40" fill="none" xmlns="http://www.w3.org/2000/svg">
<path d="M175.025 25.3335V15.3525H177.692L180.816 21.124L183.959 15.3525H186.587V25.3335H184.168V18.8763L181.616 23.5621H180.016L177.444 18.8763V25.3335H175.025Z" fill="#202020"/>
<path d="M163.725 25.3335V15.3716H166.277V21.924L170.753 15.3525H173.077V25.3335H170.525V18.9335L166.106 25.3335H163.725Z" fill="#202020"/>
<path d="M158.218 25.4859C157.151 25.4859 156.262 25.2954 155.551 24.9145C154.84 24.5335 154.281 24.0065 153.875 23.3335L155.932 22.4002C156.148 22.7304 156.427 22.9907 156.77 23.1812C157.126 23.3589 157.564 23.4478 158.085 23.4478C158.681 23.4478 159.138 23.3335 159.456 23.105C159.786 22.8637 159.951 22.5526 159.951 22.1716C159.951 21.8161 159.818 21.5304 159.551 21.3145C159.285 21.0986 158.891 20.9907 158.37 20.9907H157.342V19.4097H158.389C158.631 19.4097 158.834 19.3653 158.999 19.2764C159.177 19.1748 159.31 19.0415 159.399 18.8764C159.5 18.7113 159.551 18.5208 159.551 18.305C159.551 17.9875 159.424 17.7272 159.17 17.524C158.929 17.3208 158.542 17.2192 158.008 17.2192C157.564 17.2192 157.196 17.3018 156.904 17.4669C156.624 17.6319 156.389 17.8796 156.199 18.2097L154.275 17.1812C154.631 16.5589 155.138 16.07 155.799 15.7145C156.472 15.3589 157.253 15.1812 158.142 15.1812C158.84 15.1812 159.462 15.2891 160.008 15.505C160.567 15.7208 161.005 16.0319 161.323 16.4383C161.64 16.8446 161.799 17.3526 161.799 17.9621C161.799 18.3939 161.691 18.8129 161.475 19.2192C161.272 19.6256 160.935 19.924 160.465 20.1145C161.075 20.2923 161.532 20.597 161.837 21.0288C162.154 21.4605 162.313 21.9685 162.313 22.5526C162.313 23.1875 162.135 23.7272 161.78 24.1716C161.424 24.6034 160.942 24.9335 160.332 25.1621C159.723 25.378 159.018 25.4859 158.218 25.4859Z" fill="#202020"/>
<path d="M143.355 25.3334V15.3715H145.908V21.9239L150.384 15.3524H152.708V25.3334H150.155V18.9334L145.736 25.3334H143.355ZM148.041 14.4191C147.063 14.4191 146.295 14.1715 145.736 13.6763C145.178 13.1683 144.898 12.5207 144.898 11.7334H146.479C146.479 12.1144 146.606 12.4318 146.86 12.6858C147.114 12.9397 147.508 13.0667 148.041 13.0667C148.575 13.0667 148.955 12.9461 149.184 12.7048C149.425 12.4636 149.571 12.1397 149.622 11.7334H151.203C151.203 12.5207 150.924 13.1683 150.365 13.6763C149.806 14.1715 149.032 14.4191 148.041 14.4191Z" fill="#202020"/>
<path d="M132.113 22.3812C132.113 21.7335 132.291 21.1685 132.647 20.6859C133.015 20.1907 133.523 19.8097 134.17 19.5431C134.818 19.2764 135.561 19.1431 136.399 19.1431C136.818 19.1431 137.243 19.1748 137.675 19.2383C138.107 19.3018 138.482 19.4034 138.799 19.5431V19.0097C138.799 18.3748 138.609 17.8859 138.228 17.5431C137.859 17.2002 137.307 17.0288 136.57 17.0288C136.024 17.0288 135.504 17.124 135.009 17.3145C134.513 17.505 133.993 17.7843 133.447 18.1526L132.628 16.4764C133.288 16.0446 133.961 15.7208 134.647 15.505C135.345 15.2891 136.075 15.1812 136.837 15.1812C138.259 15.1812 139.364 15.5367 140.151 16.2478C140.951 16.9589 141.351 17.9748 141.351 19.2954V22.4764C141.351 22.7431 141.396 22.9335 141.485 23.0478C141.586 23.1621 141.745 23.2319 141.961 23.2573V25.3335C141.732 25.3716 141.523 25.4034 141.332 25.4288C141.155 25.4542 141.002 25.4669 140.875 25.4669C140.367 25.4669 139.98 25.3526 139.713 25.124C139.459 24.8954 139.301 24.6161 139.237 24.2859L139.18 23.7716C138.748 24.3304 138.209 24.7621 137.561 25.0669C136.913 25.3716 136.253 25.524 135.58 25.524C134.92 25.524 134.323 25.3907 133.789 25.124C133.269 24.8446 132.856 24.47 132.551 24.0002C132.259 23.5177 132.113 22.978 132.113 22.3812ZM138.323 22.8954C138.462 22.7431 138.577 22.5907 138.666 22.4383C138.755 22.2859 138.799 22.1462 138.799 22.0192V21.0097C138.494 20.8827 138.164 20.7875 137.809 20.724C137.453 20.6478 137.116 20.6097 136.799 20.6097C136.139 20.6097 135.593 20.7558 135.161 21.0478C134.742 21.3272 134.532 21.7018 134.532 22.1716C134.532 22.4256 134.602 22.6669 134.742 22.8954C134.882 23.124 135.085 23.3081 135.351 23.4478C135.618 23.5875 135.936 23.6573 136.304 23.6573C136.685 23.6573 137.059 23.5875 137.428 23.4478C137.796 23.2954 138.094 23.1113 138.323 22.8954Z" fill="#202020"/>
<path d="M127.09 25.524C126.316 25.524 125.63 25.3526 125.033 25.0097C124.449 24.6542 123.992 24.178 123.662 23.5812V29.3907H121.109V15.3526H123.338V17.0669C123.719 16.4827 124.201 16.0256 124.786 15.6954C125.37 15.3526 126.036 15.1812 126.786 15.1812C127.459 15.1812 128.074 15.3145 128.633 15.5812C129.205 15.8478 129.7 16.2224 130.119 16.705C130.538 17.1748 130.862 17.7208 131.09 18.3431C131.332 18.9526 131.452 19.6129 131.452 20.324C131.452 21.2891 131.262 22.1653 130.881 22.9526C130.513 23.7399 129.998 24.3685 129.338 24.8383C128.69 25.2954 127.941 25.524 127.09 25.524ZM126.233 23.3526C126.627 23.3526 126.982 23.27 127.3 23.105C127.617 22.9399 127.89 22.7177 128.119 22.4383C128.36 22.1462 128.538 21.8224 128.652 21.4669C128.779 21.0986 128.843 20.7177 128.843 20.324C128.843 19.905 128.773 19.5177 128.633 19.1621C128.506 18.8066 128.316 18.4954 128.062 18.2288C127.808 17.9494 127.509 17.7335 127.167 17.5812C126.836 17.4288 126.474 17.3526 126.081 17.3526C125.84 17.3526 125.592 17.397 125.338 17.4859C125.097 17.5621 124.862 17.6764 124.633 17.8288C124.405 17.9812 124.201 18.1589 124.024 18.3621C123.859 18.5653 123.738 18.7875 123.662 19.0288V21.3716C123.814 21.7399 124.017 22.0764 124.271 22.3812C124.538 22.6859 124.843 22.9272 125.186 23.105C125.528 23.27 125.878 23.3526 126.233 23.3526Z" fill="#202020"/>
<path d="M108.635 27.7525V23.1049H108.901C109.155 23.1049 109.39 23.0351 109.606 22.8954C109.835 22.7557 110.032 22.5208 110.197 22.1906C110.374 21.8478 110.514 21.3779 110.616 20.7811C110.73 20.1843 110.806 19.4224 110.844 18.4954L110.959 15.3525H118.444V23.1049H119.835V27.7525H117.606V25.3335H110.882V27.7525H108.635ZM112.12 23.1049H115.892V17.5049H113.187L113.13 18.743C113.092 19.5811 113.028 20.2922 112.94 20.8763C112.863 21.4478 112.755 21.9176 112.616 22.2859C112.489 22.6414 112.324 22.9144 112.12 23.1049Z" fill="#202020"/>
<path d="M98.3574 25.3335V15.3525H100.91V19.1621H104.948V15.3525H107.5V25.3335H104.948V21.2954H100.91V25.3335H98.3574Z" fill="#202020"/>
<path d="M87.1152 22.3812C87.1152 21.7335 87.293 21.1685 87.6486 20.6859C88.0168 20.1907 88.5248 19.8097 89.1724 19.5431C89.82 19.2764 90.5629 19.1431 91.4009 19.1431C91.82 19.1431 92.2454 19.1748 92.6771 19.2383C93.1089 19.3018 93.4835 19.4034 93.8009 19.5431V19.0097C93.8009 18.3748 93.6105 17.8859 93.2295 17.5431C92.8613 17.2002 92.3089 17.0288 91.5724 17.0288C91.0263 17.0288 90.5057 17.124 90.0105 17.3145C89.5152 17.505 88.9946 17.7843 88.4486 18.1526L87.6295 16.4764C88.2898 16.0446 88.9629 15.7208 89.6486 15.505C90.347 15.2891 91.0771 15.1812 91.839 15.1812C93.2613 15.1812 94.366 15.5367 95.1533 16.2478C95.9533 16.9589 96.3533 17.9748 96.3533 19.2954V22.4764C96.3533 22.7431 96.3978 22.9335 96.4867 23.0478C96.5883 23.1621 96.747 23.2319 96.9629 23.2573V25.3335C96.7343 25.3716 96.5248 25.4034 96.3343 25.4288C96.1565 25.4542 96.0041 25.4669 95.8771 25.4669C95.3692 25.4669 94.9819 25.3526 94.7152 25.124C94.4613 24.8954 94.3025 24.6161 94.239 24.2859L94.1819 23.7716C93.7502 24.3304 93.2105 24.7621 92.5629 25.0669C91.9152 25.3716 91.2549 25.524 90.5819 25.524C89.9216 25.524 89.3248 25.3907 88.7914 25.124C88.2708 24.8446 87.8581 24.47 87.5533 24.0002C87.2613 23.5177 87.1152 22.978 87.1152 22.3812ZM93.3248 22.8954C93.4644 22.7431 93.5787 22.5907 93.6676 22.4383C93.7565 22.2859 93.8009 22.1462 93.8009 22.0192V21.0097C93.4962 20.8827 93.166 20.7875 92.8105 20.724C92.4549 20.6478 92.1184 20.6097 91.801 20.6097C91.1406 20.6097 90.5946 20.7558 90.1629 21.0478C89.7438 21.3272 89.5343 21.7018 89.5343 22.1716C89.5343 22.4256 89.6041 22.6669 89.7438 22.8954C89.8835 23.124 90.0867 23.3081 90.3533 23.4478C90.62 23.5875 90.9375 23.6573 91.3057 23.6573C91.6867 23.6573 92.0613 23.5875 92.4295 23.4478C92.7978 23.2954 93.0962 23.1113 93.3248 22.8954Z" fill="#202020"/>
<path d="M78.6375 29.3906V25.3335H78.3518C77.2978 25.3335 76.3962 25.1049 75.647 24.6478C74.9105 24.1779 74.3455 23.5684 73.9518 22.8192C73.5582 22.0573 73.3613 21.2382 73.3613 20.362C73.3613 19.4605 73.5582 18.6351 73.9518 17.8859C74.3582 17.1239 74.9296 16.5144 75.6661 16.0573C76.4153 15.6001 77.3105 15.3716 78.3518 15.3716H78.6375V11.4287H81.1899V15.3716H81.4947C82.5359 15.3716 83.4312 15.6001 84.1804 16.0573C84.9296 16.5144 85.501 17.1239 85.8947 17.8859C86.2883 18.6351 86.4851 19.4605 86.4851 20.362C86.4851 21.2382 86.2883 22.0573 85.8947 22.8192C85.501 23.5684 84.9296 24.1779 84.1804 24.6478C83.4439 25.1049 82.5486 25.3335 81.4947 25.3335H81.1899V29.3906H78.6375ZM78.3518 23.2954H78.7709V17.4097H78.3518C77.8693 17.4097 77.4375 17.5366 77.0566 17.7906C76.6883 18.0446 76.3962 18.3938 76.1804 18.8382C75.9645 19.2827 75.8566 19.7906 75.8566 20.362C75.8566 20.9335 75.9645 21.4414 76.1804 21.8859C76.3962 22.3303 76.6883 22.6795 77.0566 22.9335C77.4248 23.1747 77.8566 23.2954 78.3518 23.2954ZM81.0756 23.2954H81.4947C81.9899 23.2954 82.4216 23.1747 82.7899 22.9335C83.1709 22.6795 83.4629 22.3303 83.6661 21.8859C83.882 21.4414 83.9899 20.9335 83.9899 20.362C83.9899 19.7906 83.882 19.2827 83.6661 18.8382C83.4502 18.3938 83.1582 18.0446 82.7899 17.7906C82.4216 17.5366 81.9899 17.4097 81.4947 17.4097H81.0756V23.2954Z" fill="#202020"/>
<path d="M62.7461 22.3812C62.7461 21.7335 62.9239 21.1685 63.2794 20.6859C63.6477 20.1907 64.1556 19.8097 64.8032 19.5431C65.4509 19.2764 66.1937 19.1431 67.0318 19.1431C67.4509 19.1431 67.8763 19.1748 68.308 19.2383C68.7397 19.3018 69.1143 19.4034 69.4318 19.5431V19.0097C69.4318 18.3748 69.2413 17.8859 68.8604 17.5431C68.4921 17.2002 67.9397 17.0288 67.2032 17.0288C66.6572 17.0288 66.1366 17.124 65.6413 17.3145C65.1461 17.505 64.6255 17.7843 64.0794 18.1526L63.2604 16.4764C63.9207 16.0446 64.5937 15.7208 65.2794 15.505C65.9778 15.2891 66.708 15.1812 67.4699 15.1812C68.8921 15.1812 69.9969 15.5367 70.7842 16.2478C71.5842 16.9589 71.9842 17.9748 71.9842 19.2954V22.4764C71.9842 22.7431 72.0286 22.9335 72.1175 23.0478C72.2191 23.1621 72.3778 23.2319 72.5937 23.2573V25.3335C72.3651 25.3716 72.1556 25.4034 71.9651 25.4288C71.7874 25.4542 71.635 25.4669 71.508 25.4669C71.0001 25.4669 70.6128 25.3526 70.3461 25.124C70.0921 24.8954 69.9334 24.6161 69.8699 24.2859L69.8128 23.7716C69.381 24.3304 68.8413 24.7621 68.1937 25.0669C67.5461 25.3716 66.8858 25.524 66.2128 25.524C65.5524 25.524 64.9556 25.3907 64.4223 25.124C63.9016 24.8446 63.489 24.47 63.1842 24.0002C62.8921 23.5177 62.7461 22.978 62.7461 22.3812ZM68.9556 22.8954C69.0953 22.7431 69.2096 22.5907 69.2985 22.4383C69.3874 22.2859 69.4318 22.1462 69.4318 22.0192V21.0097C69.127 20.8827 68.7969 20.7875 68.4413 20.724C68.0858 20.6478 67.7493 20.6097 67.4318 20.6097C66.7715 20.6097 66.2255 20.7558 65.7937 21.0478C65.3747 21.3272 65.1651 21.7018 65.1651 22.1716C65.1651 22.4256 65.235 22.6669 65.3747 22.8954C65.5143 23.124 65.7175 23.3081 65.9842 23.4478C66.2509 23.5875 66.5683 23.6573 66.9366 23.6573C67.3175 23.6573 67.6921 23.5875 68.0604 23.4478C68.4286 23.2954 68.727 23.1113 68.9556 22.8954Z" fill="#202020"/>
<path d="M61.3519 11.8096V25.3334H58.7424V19.562H52.609V25.3334H49.9805V11.8096H52.609V17.2762H58.7424V11.8096H61.3519Z" fill="#202020"/>
<path d="M12.5898 17.9562C13.8113 18.4246 15.1481 18.2186 16.1666 17.4056L22.5177 12.338L40.0004 19.0476C39.9646 18.3989 39.9062 17.7501 39.8038 17.1014C38.7415 10.3209 34.2194 4.59156 27.8845 1.90479L10.4766 15.791C10.8209 16.781 11.5779 17.5666 12.5898 17.9562Z" fill="#FF876C"/>
<path d="M17.6813 19.0799C15.9941 20.4358 13.7791 20.7796 11.759 19.9995C9.73888 19.2161 8.33422 17.4742 8.00132 15.3349C7.93602 14.9164 8.0992 14.495 8.42926 14.2296L22.1983 3.15983C23.4726 2.13529 23.0226 0.158974 21.3913 0.0470727C16.4361 -0.292834 11.4518 1.21272 7.47194 4.41285C1.89714 8.89584 -0.860224 16.0063 0.237523 23.0698C1.33689 30.1316 6.12411 36.0727 12.7983 38.6532C16.4388 40.0613 20.3358 40.3486 24.032 39.5931C25.7569 39.2406 25.7489 37.068 24.1094 36.4262L16.874 33.5942C16.2636 33.3552 15.9628 32.6664 16.2025 32.0563C16.4417 31.4472 17.1291 31.1471 17.7384 31.3855L30.1723 36.2507C30.7808 36.4888 31.4718 36.421 31.9988 36.0347C32.1986 35.8883 32.3959 35.7376 32.5902 35.5813C33.6542 34.7288 33.2911 33.1052 32.0213 32.6085L21.6154 28.5382C21.0051 28.2995 20.704 27.611 20.9431 27.0008C21.182 26.391 21.8699 26.0902 22.4798 26.3289L34.8183 31.1569C35.6672 31.4891 36.6427 31.2104 37.1176 30.4323C37.199 30.299 37.2787 30.1647 37.3569 30.0297C37.9283 29.0419 37.4209 27.8162 36.3583 27.3999L26.3555 23.4817C25.7453 23.2426 25.4446 22.5539 25.6843 21.9439C25.9235 21.3347 26.6111 21.0346 27.2204 21.2732L37.1367 25.1564C38.2184 25.58 39.4423 24.9965 39.6697 23.8573C39.7336 23.537 39.7898 23.2149 39.8379 22.8912C39.9673 22.0221 39.4405 21.2055 38.621 20.8886L24.0382 15.2483C23.3723 14.9907 22.6196 15.1077 22.0632 15.5552L17.6813 19.0799Z" fill="#2478FF"/>
</svg>
